<?xml version="1.0" encoding="utf-8"?>
<!-- Generator: Adobe Illustrator 17.1.0, SVG Export Plug-In . SVG Version: 6.00 Build 0)  -->
<!DOCTYPE svg PUBLIC "-//W3C//DTD SVG 1.1//EN" "http://www.w3.org/Graphics/SVG/1.1/DTD/svg11.dtd">
<svg version="1.1" xmlns="http://www.w3.org/2000/svg" xmlns:xlink="http://www.w3.org/1999/xlink" x="0px" y="0px"
	 viewBox="0 0 500 420" style="enable-background:new 0 0 500 420;" xml:space="preserve">
<style type="text/css">
	.st0{fill:#FFFFFF;stroke:#000000;stroke-width:2.6519;stroke-linecap:round;stroke-linejoin:round;}
	.st1{fill:#FFFFFF;stroke:#000000;stroke-width:2.86;stroke-linecap:round;stroke-linejoin:round;}
	.st2{fill:#FFFFFF;stroke:#000000;stroke-width:3;stroke-linecap:round;stroke-linejoin:round;}
	.st3{fill:#FFFFFF;stroke:#000000;stroke-width:2.8909;stroke-linecap:round;stroke-linejoin:round;}
	.st4{fill:#FFFFFF;stroke:#000000;stroke-width:2.6;stroke-linecap:round;stroke-linejoin:round;}
	.st5{fill:#FFFFFF;stroke:#000000;stroke-width:2.7788;stroke-linecap:round;stroke-linejoin:round;}
	.st6{fill:#FFFFFF;}
	.st7{fill:#B3B3B3;}
	.st8{fill:none;stroke:#E6E6E6;stroke-width:3;stroke-linejoin:round;stroke-miterlimit:10;}
	.st9{fill:none;stroke:#E6E6E6;stroke-width:3;stroke-linecap:round;stroke-linejoin:round;stroke-miterlimit:10;}
	.st10{fill:#E6E6E6;}
</style>
<g id="map">
	<path class="st0" d="M310.4,318.1c0,3.3-2.7,5.9-5.9,5.9H218c-3.3,0-5.9-2.7-5.9-5.9v-23.7c0-3.3,2.7-5.9,5.9-5.9h86.4
		c3.3,0,5.9,2.7,5.9,5.9V318.1z"/>
	<polyline class="st1" points="288,278.3 206,278.3 143,278.3 143,127.3 181.7,126.7 182.3,33 287,33 287,262 	"/>
	<polygon class="st2" points="109.9,108.1 34.5,108.1 34.9,187 180.6,187 180.6,144.9 109.9,145.1 	"/>
	<rect x="110.3" y="47" class="st3" width="86.7" height="98"/>
	<polyline class="st2" points="254.5,236.2 254.5,185.7 254,33 344.3,33 344.3,40.2 380,40.2 380,134.7 473.5,134.7 473.5,277.7 
		415.3,277.7 415.3,297.5 331.5,297.2 331.5,236.2 	"/>
	<circle class="st4" cx="293.5" cy="240" r="39"/>
	<rect x="51.2" y="205.5" class="st2" width="80.5" height="90.5"/>
	<rect x="23.1" y="274" class="st5" width="72.5" height="41"/>
</g>
<g id="Labels">
	<g>
		<path d="M234.5,302.4c-0.3,0.1-0.5,0.2-0.6,0.6c-0.1,0.2-0.1,0.3-0.1,0.5c0,0,0,0,0,0s0,0,0,0.1h0.6v1.3h-1.2v-1.2
			c0-0.6,0.1-1,0.3-1.3s0.5-0.5,0.9-0.5V302.4z M236.4,302.4c-0.2,0-0.4,0.2-0.5,0.4s-0.2,0.4-0.2,0.7c0,0,0,0,0,0.1s0,0,0,0.1h0.6
			v1.3h-1.3v-1.2c0-0.5,0.1-0.9,0.3-1.2s0.5-0.6,1-0.6V302.4z"/>
		<path d="M237.9,301.9h3.7c1,0,1.7,0.3,2.2,0.9c0.3,0.4,0.4,0.8,0.4,1.2c0,0.5-0.2,1-0.5,1.3c-0.2,0.2-0.4,0.4-0.7,0.5
			c0.4,0.2,0.8,0.4,1,0.6c0.4,0.4,0.6,0.9,0.6,1.6c0,0.6-0.2,1.1-0.5,1.5c-0.5,0.7-1.4,1-2.5,1h-3.7V301.9z M241.2,305.6
			c0.5,0,0.9-0.1,1.2-0.2c0.4-0.2,0.7-0.6,0.7-1.2c0-0.6-0.2-0.9-0.7-1.1c-0.3-0.1-0.6-0.2-1.2-0.2h-2.1v2.7H241.2z M241.6,309.5
			c0.7,0,1.2-0.2,1.5-0.6c0.2-0.3,0.3-0.6,0.3-0.9c0-0.6-0.3-1.1-0.8-1.3c-0.3-0.1-0.7-0.2-1.2-0.2h-2.3v3H241.6z"/>
		<path d="M246.1,301.9h1.1v1.2h-1.1V301.9z M246.1,304.3h1.1v6.2h-1.1V304.3z"/>
		<path d="M252.6,304.5c0.2,0.1,0.4,0.3,0.6,0.6v-0.8h1v5.7c0,0.8-0.1,1.4-0.4,1.9c-0.4,0.9-1.3,1.3-2.5,1.3c-0.7,0-1.2-0.2-1.7-0.5
			s-0.7-0.8-0.8-1.4h1.1c0.1,0.3,0.2,0.5,0.3,0.7c0.2,0.2,0.6,0.4,1.1,0.4c0.8,0,1.3-0.3,1.6-0.9c0.1-0.3,0.2-0.9,0.2-1.8
			c-0.2,0.3-0.5,0.6-0.8,0.7c-0.3,0.2-0.7,0.2-1.2,0.2c-0.7,0-1.3-0.2-1.8-0.7s-0.8-1.3-0.8-2.4c0-1.1,0.3-1.9,0.8-2.5
			s1.1-0.9,1.9-0.9C251.8,304.1,252.2,304.3,252.6,304.5z M252.7,305.6c-0.3-0.4-0.7-0.6-1.2-0.6c-0.7,0-1.2,0.3-1.5,1
			c-0.1,0.4-0.2,0.9-0.2,1.5c0,0.7,0.1,1.2,0.4,1.6c0.3,0.4,0.7,0.6,1.2,0.6c0.8,0,1.3-0.3,1.6-1c0.2-0.4,0.3-0.8,0.3-1.4
			C253.2,306.6,253,306,252.7,305.6z"/>
		<path d="M259.8,301.9h1.7l2.5,7.3l2.5-7.3h1.7v8.6H267v-5.1c0-0.2,0-0.5,0-0.9s0-0.8,0-1.3l-2.5,7.3h-1.2l-2.5-7.3v0.3
			c0,0.2,0,0.5,0,1s0,0.7,0,1v5.1h-1.1V301.9z"/>
		<path d="M270,301.9h1.1v1.2H270V301.9z M270,304.3h1.1v6.2H270V304.3z"/>
		<path d="M272.9,301.9h1v5l2.7-2.7h1.3l-2.4,2.3l2.5,3.9h-1.3l-2-3.2l-0.9,0.8v2.4h-1V301.9z"/>
		<path d="M283.1,304.4c0.4,0.2,0.7,0.5,0.9,0.8c0.2,0.3,0.3,0.7,0.4,1.1c0.1,0.3,0.1,0.8,0.1,1.4H280c0,0.6,0.2,1.2,0.4,1.5
			c0.3,0.4,0.7,0.6,1.3,0.6c0.5,0,1-0.2,1.3-0.5c0.2-0.2,0.3-0.5,0.4-0.7h1c0,0.2-0.1,0.5-0.3,0.8s-0.3,0.5-0.5,0.7
			c-0.3,0.3-0.7,0.5-1.2,0.6c-0.3,0.1-0.5,0.1-0.9,0.1c-0.8,0-1.4-0.3-2-0.9c-0.5-0.6-0.8-1.4-0.8-2.4c0-1,0.3-1.8,0.8-2.5
			c0.5-0.6,1.3-0.9,2.1-0.9C282.3,304.1,282.7,304.2,283.1,304.4z M283.5,306.9c0-0.5-0.1-0.8-0.3-1.1c-0.3-0.5-0.8-0.8-1.4-0.8
			c-0.5,0-0.9,0.2-1.2,0.5s-0.5,0.8-0.5,1.3H283.5z"/>
		<path d="M285.9,304.4c0.3-0.1,0.5-0.3,0.6-0.6c0.1-0.2,0.1-0.4,0.1-0.6h-0.6v-1.3h1.2v1.2c0,0.5-0.1,0.9-0.3,1.2s-0.5,0.6-1,0.6
			V304.4z M287.9,304.4c0.3-0.1,0.5-0.3,0.6-0.6c0.1-0.2,0.1-0.4,0.1-0.6h-0.6v-1.3h1.3v1.2c0,0.5-0.1,0.9-0.3,1.2s-0.5,0.6-1,0.6
			V304.4z"/>
	</g>
	<g>
		<path d="M216.9,239.4h1.2v7.6h4.3v1h-5.5V239.4z"/>
		<path d="M228.3,242.4c0.6,0.5,0.8,1.3,0.8,2.4c0,1-0.2,1.8-0.7,2.5c-0.5,0.7-1.2,1-2.3,1c-0.9,0-1.5-0.3-2-0.9
			c-0.5-0.6-0.8-1.4-0.8-2.4c0-1.1,0.3-1.9,0.8-2.5c0.5-0.6,1.2-0.9,2.1-0.9C227.1,241.5,227.7,241.8,228.3,242.4z M227.6,246.5
			c0.3-0.5,0.4-1.1,0.4-1.8c0-0.6-0.1-1.1-0.3-1.4c-0.3-0.6-0.8-0.9-1.5-0.9c-0.6,0-1.1,0.2-1.4,0.7c-0.3,0.5-0.4,1.1-0.4,1.8
			c0,0.7,0.1,1.2,0.4,1.7c0.3,0.4,0.7,0.7,1.4,0.7C226.9,247.3,227.4,247,227.6,246.5z"/>
		<path d="M230.6,239.4h1v3.1c0.2-0.3,0.5-0.5,0.8-0.7c0.3-0.2,0.7-0.2,1-0.2c0.8,0,1.4,0.3,1.9,0.8s0.7,1.3,0.7,2.4
			c0,1-0.2,1.8-0.7,2.5s-1.2,1-2,1c-0.5,0-0.9-0.1-1.2-0.3c-0.2-0.1-0.4-0.4-0.6-0.7v0.8h-1V239.4z M234.7,246.6
			c0.3-0.5,0.4-1.1,0.4-1.8c0-0.7-0.1-1.2-0.4-1.6s-0.7-0.7-1.3-0.7c-0.5,0-0.9,0.2-1.3,0.5c-0.4,0.4-0.5,0.9-0.5,1.8
			c0,0.6,0.1,1.1,0.2,1.4c0.3,0.7,0.8,1,1.6,1C234,247.3,234.4,247,234.7,246.6z"/>
		<path d="M237.6,239.4h1v3.1c0.2-0.3,0.5-0.5,0.8-0.7c0.3-0.2,0.7-0.2,1-0.2c0.8,0,1.4,0.3,1.9,0.8s0.7,1.3,0.7,2.4
			c0,1-0.2,1.8-0.7,2.5s-1.2,1-2,1c-0.5,0-0.9-0.1-1.2-0.3c-0.2-0.1-0.4-0.4-0.6-0.7v0.8h-1V239.4z M241.6,246.6
			c0.3-0.5,0.4-1.1,0.4-1.8c0-0.7-0.1-1.2-0.4-1.6s-0.7-0.7-1.3-0.7c-0.5,0-0.9,0.2-1.3,0.5c-0.4,0.4-0.5,0.9-0.5,1.8
			c0,0.6,0.1,1.1,0.2,1.4c0.3,0.7,0.8,1,1.6,1C240.9,247.3,241.4,247,241.6,246.6z"/>
		<path d="M248.6,241.7h1.2c-0.1,0.4-0.5,1.3-1,2.8c-0.4,1.1-0.7,2-1,2.6c-0.6,1.6-1,2.6-1.3,2.9c-0.2,0.4-0.7,0.5-1.3,0.5
			c-0.1,0-0.3,0-0.3,0c-0.1,0-0.2,0-0.3-0.1v-1c0.2,0.1,0.3,0.1,0.4,0.1c0.1,0,0.2,0,0.2,0c0.2,0,0.3,0,0.4-0.1
			c0.1-0.1,0.2-0.1,0.2-0.2c0,0,0.1-0.2,0.2-0.5c0.1-0.3,0.2-0.5,0.3-0.6l-2.3-6.5h1.2l1.7,5.1L248.6,241.7z"/>
	</g>
	<g>
		<path d="M261,234.4h3.9c0.8,0,1.4,0.2,1.8,0.6s0.7,1,0.7,1.8c0,0.7-0.2,1.3-0.6,1.8c-0.4,0.5-1.1,0.7-1.9,0.7h-2.7v3.6H261V234.4z
			 M265.5,235.6c-0.3-0.1-0.6-0.2-1.1-0.2h-2.3v3h2.3c0.5,0,0.9-0.1,1.3-0.3s0.5-0.6,0.5-1.2C266.2,236.2,266,235.8,265.5,235.6z"/>
		<path d="M269,234.4h1.1v8.6H269V234.4z"/>
		<path d="M275.3,239.2c0.2,0,0.4-0.1,0.5-0.3c0-0.1,0.1-0.2,0.1-0.4c0-0.4-0.1-0.6-0.4-0.8c-0.3-0.2-0.6-0.2-1.1-0.2
			c-0.5,0-0.9,0.1-1.2,0.4c-0.1,0.2-0.2,0.4-0.3,0.7h-1c0-0.8,0.3-1.3,0.8-1.6s1-0.5,1.7-0.5c0.7,0,1.3,0.1,1.8,0.4
			c0.5,0.3,0.7,0.7,0.7,1.3v3.6c0,0.1,0,0.2,0.1,0.3s0.1,0.1,0.3,0.1c0,0,0.1,0,0.2,0s0.1,0,0.2,0v0.8c-0.2,0-0.3,0.1-0.4,0.1
			s-0.2,0-0.4,0c-0.4,0-0.6-0.1-0.8-0.4c-0.1-0.1-0.1-0.3-0.2-0.6c-0.2,0.3-0.5,0.5-0.9,0.7s-0.8,0.3-1.3,0.3
			c-0.6,0-1.1-0.2-1.4-0.5c-0.4-0.4-0.6-0.8-0.6-1.3c0-0.6,0.2-1,0.5-1.4c0.4-0.3,0.8-0.5,1.4-0.6L275.3,239.2z M273.1,242.1
			c0.2,0.2,0.5,0.3,0.8,0.3c0.4,0,0.7-0.1,1.1-0.3c0.6-0.3,0.9-0.8,0.9-1.4v-0.8c-0.1,0.1-0.3,0.2-0.5,0.2s-0.4,0.1-0.6,0.1
			l-0.6,0.1c-0.4,0.1-0.7,0.1-0.9,0.2c-0.3,0.2-0.5,0.5-0.5,0.9C272.8,241.6,272.9,241.9,273.1,242.1z"/>
		<path d="M279,236.7h1v0.9c0.3-0.4,0.6-0.6,0.9-0.8s0.7-0.2,1.1-0.2c0.9,0,1.5,0.3,1.8,0.9c0.2,0.3,0.3,0.8,0.3,1.5v4H283v-4
			c0-0.4-0.1-0.7-0.2-0.9c-0.2-0.4-0.5-0.6-1-0.6c-0.2,0-0.5,0-0.6,0.1c-0.3,0.1-0.5,0.3-0.8,0.5c-0.2,0.2-0.3,0.4-0.3,0.6
			s-0.1,0.5-0.1,0.9v3.3H279V236.7z"/>
		<path d="M289.8,236.9c0.4,0.2,0.7,0.5,0.9,0.8c0.2,0.3,0.3,0.7,0.4,1.1c0.1,0.3,0.1,0.8,0.1,1.4h-4.6c0,0.6,0.2,1.2,0.4,1.5
			c0.3,0.4,0.7,0.6,1.3,0.6c0.5,0,1-0.2,1.3-0.5c0.2-0.2,0.3-0.5,0.4-0.7h1c0,0.2-0.1,0.5-0.3,0.8s-0.3,0.5-0.5,0.7
			c-0.3,0.3-0.7,0.5-1.2,0.6c-0.3,0.1-0.5,0.1-0.9,0.1c-0.8,0-1.4-0.3-2-0.9c-0.5-0.6-0.8-1.4-0.8-2.4c0-1,0.3-1.8,0.8-2.5
			c0.5-0.6,1.3-0.9,2.1-0.9C289,236.6,289.4,236.7,289.8,236.9z M290.2,239.4c0-0.5-0.1-0.8-0.3-1.1c-0.3-0.5-0.8-0.8-1.4-0.8
			c-0.5,0-0.9,0.2-1.2,0.5s-0.5,0.8-0.5,1.3H290.2z"/>
		<path d="M293.1,235h1.1v1.8h1v0.9h-1v4.1c0,0.2,0.1,0.4,0.2,0.4c0.1,0,0.2,0.1,0.4,0.1c0.1,0,0.1,0,0.2,0s0.1,0,0.2,0v0.8
			c-0.1,0-0.2,0.1-0.4,0.1s-0.3,0-0.4,0c-0.5,0-0.8-0.1-1-0.4s-0.3-0.6-0.3-1v-4.2h-0.8v-0.9h0.8V235z"/>
		<path d="M299.9,239.2c0.2,0,0.4-0.1,0.5-0.3c0-0.1,0.1-0.2,0.1-0.4c0-0.4-0.1-0.6-0.4-0.8c-0.3-0.2-0.6-0.2-1.1-0.2
			c-0.5,0-0.9,0.1-1.2,0.4c-0.1,0.2-0.2,0.4-0.3,0.7h-1c0-0.8,0.3-1.3,0.8-1.6s1-0.5,1.7-0.5c0.7,0,1.3,0.1,1.8,0.4
			c0.5,0.3,0.7,0.7,0.7,1.3v3.6c0,0.1,0,0.2,0.1,0.3s0.1,0.1,0.3,0.1c0,0,0.1,0,0.2,0s0.1,0,0.2,0v0.8c-0.2,0-0.3,0.1-0.4,0.1
			s-0.2,0-0.4,0c-0.4,0-0.6-0.1-0.8-0.4c-0.1-0.1-0.1-0.3-0.2-0.6c-0.2,0.3-0.5,0.5-0.9,0.7s-0.8,0.3-1.3,0.3
			c-0.6,0-1.1-0.2-1.4-0.5c-0.4-0.4-0.6-0.8-0.6-1.3c0-0.6,0.2-1,0.5-1.4c0.4-0.3,0.8-0.5,1.4-0.6L299.9,239.2z M297.7,242.1
			c0.2,0.2,0.5,0.3,0.8,0.3c0.4,0,0.7-0.1,1.1-0.3c0.6-0.3,0.9-0.8,0.9-1.4v-0.8c-0.1,0.1-0.3,0.2-0.5,0.2s-0.4,0.1-0.6,0.1
			l-0.6,0.1c-0.4,0.1-0.7,0.1-0.9,0.2c-0.3,0.2-0.5,0.5-0.5,0.9C297.3,241.6,297.5,241.9,297.7,242.1z"/>
		<path d="M303.5,236.7h1v1.1c0.1-0.2,0.3-0.5,0.6-0.8s0.7-0.5,1.1-0.5c0,0,0.1,0,0.1,0s0.1,0,0.2,0v1.1c-0.1,0-0.1,0-0.2,0
			s-0.1,0-0.2,0c-0.5,0-0.9,0.2-1.2,0.5s-0.4,0.7-0.4,1.2v3.6h-1.1V236.7z"/>
		<path d="M307.8,234.4h1.1v1.2h-1.1V234.4z M307.8,236.8h1.1v6.2h-1.1V236.8z"/>
		<path d="M311.8,236.7v4.2c0,0.3,0,0.6,0.1,0.8c0.2,0.4,0.5,0.6,1,0.6c0.7,0,1.2-0.3,1.5-1c0.1-0.4,0.2-0.8,0.2-1.4v-3.1h1.1v6.3
			h-1l0-0.9c-0.1,0.2-0.3,0.4-0.5,0.6c-0.4,0.3-0.9,0.5-1.4,0.5c-0.9,0-1.5-0.3-1.8-0.9c-0.2-0.3-0.3-0.7-0.3-1.3v-4.3H311.8z"/>
		<path d="M317.7,236.7h1v0.9c0.2-0.3,0.5-0.5,0.7-0.7c0.3-0.2,0.7-0.4,1.2-0.4c0.5,0,0.9,0.1,1.2,0.4c0.2,0.1,0.3,0.3,0.5,0.6
			c0.2-0.3,0.5-0.6,0.8-0.7s0.7-0.2,1.1-0.2c0.8,0,1.4,0.3,1.7,0.9c0.2,0.3,0.2,0.8,0.2,1.3v4.2h-1.1v-4.4c0-0.4-0.1-0.7-0.3-0.9
			s-0.5-0.2-0.8-0.2c-0.4,0-0.8,0.1-1.1,0.4s-0.4,0.7-0.4,1.4v3.7h-1.1v-4.1c0-0.4-0.1-0.7-0.2-0.9c-0.2-0.3-0.5-0.4-0.9-0.4
			c-0.4,0-0.8,0.2-1.1,0.5s-0.5,0.9-0.5,1.7v3.3h-1.1V236.7z"/>
	</g>
	<g>
		<path d="M338.2,222.4h1.2v3.6h4.4v-3.6h1.2v8.6h-1.2v-4h-4.4v4h-1.2V222.4z"/>
		<path d="M350.4,227.2c0.2,0,0.4-0.1,0.5-0.3c0-0.1,0.1-0.2,0.1-0.4c0-0.4-0.1-0.6-0.4-0.8c-0.3-0.2-0.6-0.2-1.1-0.2
			c-0.5,0-0.9,0.1-1.2,0.4c-0.1,0.2-0.2,0.4-0.3,0.7h-1c0-0.8,0.3-1.3,0.8-1.6s1-0.5,1.7-0.5c0.7,0,1.3,0.1,1.8,0.4
			c0.5,0.3,0.7,0.7,0.7,1.3v3.6c0,0.1,0,0.2,0.1,0.3s0.1,0.1,0.3,0.1c0,0,0.1,0,0.2,0s0.1,0,0.2,0v0.8c-0.2,0-0.3,0.1-0.4,0.1
			s-0.2,0-0.4,0c-0.4,0-0.6-0.1-0.8-0.4c-0.1-0.1-0.1-0.3-0.2-0.6c-0.2,0.3-0.5,0.5-0.9,0.7s-0.8,0.3-1.3,0.3
			c-0.6,0-1.1-0.2-1.4-0.5c-0.4-0.4-0.6-0.8-0.6-1.3c0-0.6,0.2-1,0.5-1.4c0.4-0.3,0.8-0.5,1.4-0.6L350.4,227.2z M348.2,230.1
			c0.2,0.2,0.5,0.3,0.8,0.3c0.4,0,0.7-0.1,1.1-0.3c0.6-0.3,0.9-0.8,0.9-1.4v-0.8c-0.1,0.1-0.3,0.2-0.5,0.2s-0.4,0.1-0.6,0.1
			l-0.6,0.1c-0.4,0.1-0.7,0.1-0.9,0.2c-0.3,0.2-0.5,0.5-0.5,0.9C347.8,229.6,347.9,229.9,348.2,230.1z"/>
		<path d="M354,222.4h1.1v8.6H354V222.4z"/>
		<path d="M357,222.4h1.1v8.6H357V222.4z"/>
		<path d="M368.1,225.4c0.6,0.5,0.8,1.3,0.8,2.4c0,1-0.2,1.8-0.7,2.5c-0.5,0.7-1.2,1-2.3,1c-0.9,0-1.5-0.3-2-0.9
			c-0.5-0.6-0.8-1.4-0.8-2.4c0-1.1,0.3-1.9,0.8-2.5c0.5-0.6,1.2-0.9,2.1-0.9C366.9,224.5,367.5,224.8,368.1,225.4z M367.4,229.5
			c0.3-0.5,0.4-1.1,0.4-1.8c0-0.6-0.1-1.1-0.3-1.4c-0.3-0.6-0.8-0.9-1.5-0.9c-0.6,0-1.1,0.2-1.4,0.7c-0.3,0.5-0.4,1.1-0.4,1.8
			c0,0.7,0.1,1.2,0.4,1.7c0.3,0.4,0.7,0.7,1.4,0.7C366.7,230.3,367.2,230,367.4,229.5z"/>
		<path d="M371,222.8c0.2-0.4,0.7-0.5,1.4-0.5c0.1,0,0.1,0,0.2,0s0.2,0,0.2,0v1c-0.1,0-0.2,0-0.2,0c0,0-0.1,0-0.1,0
			c-0.3,0-0.5,0.1-0.6,0.2s-0.1,0.6-0.1,1.3h1.1v0.8h-1.1v5.4h-1v-5.4h-0.9v-0.8h0.9v-1C370.8,223.3,370.9,223,371,222.8z"/>
		<path d="M345.6,237c0.8,0.4,1.4,1.2,1.5,2.4h-1.2c-0.1-0.6-0.4-1.1-0.9-1.4s-1-0.4-1.6-0.4c-0.8,0-1.4,0.3-2,0.9s-0.8,1.5-0.8,2.7
			c0,1,0.2,1.9,0.7,2.5c0.4,0.6,1.2,1,2.2,1c0.8,0,1.4-0.2,1.9-0.7s0.8-1.2,0.8-2.2h-2.7v-1h3.8v4.6h-0.8l-0.3-1.1
			c-0.4,0.4-0.7,0.7-1,0.9c-0.5,0.3-1.1,0.4-1.9,0.4c-1,0-1.9-0.3-2.6-1c-0.8-0.8-1.2-2-1.2-3.4c0-1.4,0.4-2.6,1.2-3.4
			c0.7-0.8,1.7-1.2,2.8-1.2C344.3,236.6,345,236.7,345.6,237z"/>
		<path d="M349.3,236.8h1.1v1.2h-1.1V236.8z M349.3,239.2h1.1v6.2h-1.1V239.2z"/>
		<path d="M355.6,241.6c0.2,0,0.4-0.1,0.5-0.3c0-0.1,0.1-0.2,0.1-0.4c0-0.4-0.1-0.6-0.4-0.8c-0.3-0.2-0.6-0.2-1.1-0.2
			c-0.5,0-0.9,0.1-1.2,0.4c-0.1,0.2-0.2,0.4-0.3,0.7h-1c0-0.8,0.3-1.3,0.8-1.6s1-0.5,1.7-0.5c0.7,0,1.3,0.1,1.8,0.4
			c0.5,0.3,0.7,0.7,0.7,1.3v3.6c0,0.1,0,0.2,0.1,0.3s0.1,0.1,0.3,0.1c0,0,0.1,0,0.2,0s0.1,0,0.2,0v0.8c-0.2,0-0.3,0.1-0.4,0.1
			s-0.2,0-0.4,0c-0.4,0-0.6-0.1-0.8-0.4c-0.1-0.1-0.1-0.3-0.2-0.6c-0.2,0.3-0.5,0.5-0.9,0.7s-0.8,0.3-1.3,0.3
			c-0.6,0-1.1-0.2-1.4-0.5c-0.4-0.4-0.6-0.8-0.6-1.3c0-0.6,0.2-1,0.5-1.4c0.4-0.3,0.8-0.5,1.4-0.6L355.6,241.6z M353.4,244.5
			c0.2,0.2,0.5,0.3,0.8,0.3c0.4,0,0.7-0.1,1.1-0.3c0.6-0.3,0.9-0.8,0.9-1.4v-0.8c-0.1,0.1-0.3,0.2-0.5,0.2s-0.4,0.1-0.6,0.1
			l-0.6,0.1c-0.4,0.1-0.7,0.1-0.9,0.2c-0.3,0.2-0.5,0.5-0.5,0.9C353.1,244,353.2,244.3,353.4,244.5z"/>
		<path d="M359.3,239.1h1v0.9c0.3-0.4,0.6-0.6,0.9-0.8s0.7-0.2,1.1-0.2c0.9,0,1.5,0.3,1.8,0.9c0.2,0.3,0.3,0.8,0.3,1.5v4h-1.1v-4
			c0-0.4-0.1-0.7-0.2-0.9c-0.2-0.4-0.5-0.6-1-0.6c-0.2,0-0.5,0-0.6,0.1c-0.3,0.1-0.5,0.3-0.8,0.5c-0.2,0.2-0.3,0.4-0.3,0.6
			s-0.1,0.5-0.1,0.9v3.3h-1.1V239.1z"/>
		<path d="M366.4,237.4h1.1v1.8h1v0.9h-1v4.1c0,0.2,0.1,0.4,0.2,0.4c0.1,0,0.2,0.1,0.4,0.1c0.1,0,0.1,0,0.2,0s0.1,0,0.2,0v0.8
			c-0.1,0-0.2,0.1-0.4,0.1s-0.3,0-0.4,0c-0.5,0-0.8-0.1-1-0.4s-0.3-0.6-0.3-1V240h-0.8v-0.9h0.8V237.4z"/>
		<path d="M370.5,243.4c0,0.4,0.1,0.6,0.3,0.8c0.3,0.3,0.7,0.5,1.4,0.5c0.4,0,0.7-0.1,1.1-0.3s0.5-0.4,0.5-0.8
			c0-0.3-0.1-0.5-0.4-0.6c-0.2-0.1-0.5-0.2-0.9-0.3l-0.9-0.2c-0.5-0.1-0.9-0.3-1.2-0.4c-0.5-0.3-0.7-0.7-0.7-1.2
			c0-0.6,0.2-1.1,0.7-1.4c0.4-0.4,1-0.6,1.7-0.6c1,0,1.6,0.3,2.1,0.8c0.3,0.4,0.4,0.7,0.4,1.1h-1c0-0.2-0.1-0.5-0.3-0.6
			c-0.2-0.3-0.7-0.4-1.3-0.4c-0.4,0-0.7,0.1-0.9,0.2c-0.2,0.2-0.3,0.4-0.3,0.6c0,0.3,0.1,0.5,0.4,0.7c0.2,0.1,0.4,0.2,0.7,0.3
			l0.7,0.2c0.8,0.2,1.3,0.4,1.6,0.5c0.4,0.3,0.6,0.7,0.6,1.3c0,0.6-0.2,1-0.6,1.4c-0.4,0.4-1.1,0.6-2,0.6c-0.9,0-1.6-0.2-2-0.6
			s-0.6-0.9-0.6-1.6H370.5z"/>
	</g>
	<g>
		<path d="M272.4,167.4h1.2v7.6h4.3v1h-5.5V167.4z"/>
		<path d="M282.6,172.2c0.2,0,0.4-0.1,0.5-0.3c0-0.1,0.1-0.2,0.1-0.4c0-0.4-0.1-0.6-0.4-0.8c-0.3-0.2-0.6-0.2-1.1-0.2
			c-0.5,0-0.9,0.1-1.2,0.4c-0.1,0.2-0.2,0.4-0.3,0.7h-1c0-0.8,0.3-1.3,0.8-1.6s1-0.5,1.7-0.5c0.7,0,1.3,0.1,1.8,0.4
			c0.5,0.3,0.7,0.7,0.7,1.3v3.6c0,0.1,0,0.2,0.1,0.3s0.1,0.1,0.3,0.1c0,0,0.1,0,0.2,0s0.1,0,0.2,0v0.8c-0.2,0-0.3,0.1-0.4,0.1
			s-0.2,0-0.4,0c-0.4,0-0.6-0.1-0.8-0.4c-0.1-0.1-0.1-0.3-0.2-0.6c-0.2,0.3-0.5,0.5-0.9,0.7s-0.8,0.3-1.3,0.3
			c-0.6,0-1.1-0.2-1.4-0.5c-0.4-0.4-0.6-0.8-0.6-1.3c0-0.6,0.2-1,0.5-1.4c0.4-0.3,0.8-0.5,1.4-0.6L282.6,172.2z M280.4,175.1
			c0.2,0.2,0.5,0.3,0.8,0.3c0.4,0,0.7-0.1,1.1-0.3c0.6-0.3,0.9-0.8,0.9-1.4v-0.8c-0.1,0.1-0.3,0.2-0.5,0.2s-0.4,0.1-0.6,0.1
			l-0.6,0.1c-0.4,0.1-0.7,0.1-0.9,0.2c-0.3,0.2-0.5,0.5-0.5,0.9C280,174.6,280.2,174.9,280.4,175.1z"/>
		<path d="M286.2,169.7h1v0.9c0.3-0.4,0.6-0.6,0.9-0.8s0.7-0.2,1.1-0.2c0.9,0,1.5,0.3,1.8,0.9c0.2,0.3,0.3,0.8,0.3,1.5v4h-1.1v-4
			c0-0.4-0.1-0.7-0.2-0.9c-0.2-0.4-0.5-0.6-1-0.6c-0.2,0-0.5,0-0.6,0.1c-0.3,0.1-0.5,0.3-0.8,0.5c-0.2,0.2-0.3,0.4-0.3,0.6
			s-0.1,0.5-0.1,0.9v3.3h-1.1V169.7z"/>
		<path d="M296.6,169.9c0.2,0.1,0.4,0.3,0.6,0.6v-3.2h1v8.6h-0.9v-0.9c-0.2,0.4-0.5,0.7-0.9,0.8c-0.3,0.2-0.7,0.3-1.1,0.3
			c-0.7,0-1.3-0.3-1.8-0.9s-0.8-1.4-0.8-2.3c0-0.9,0.2-1.7,0.7-2.4c0.5-0.7,1.1-1,2-1C295.9,169.6,296.3,169.7,296.6,169.9z
			 M294.3,174.6c0.3,0.5,0.7,0.7,1.4,0.7c0.5,0,0.9-0.2,1.2-0.6s0.5-1,0.5-1.8c0-0.8-0.2-1.4-0.5-1.8s-0.7-0.6-1.2-0.6
			c-0.5,0-1,0.2-1.3,0.6c-0.3,0.4-0.5,1-0.5,1.8C293.8,173.6,294,174.2,294.3,174.6z"/>
		<path d="M300.6,167.8c0.2-0.4,0.7-0.5,1.4-0.5c0.1,0,0.1,0,0.2,0s0.2,0,0.2,0v1c-0.1,0-0.2,0-0.2,0c0,0-0.1,0-0.1,0
			c-0.3,0-0.5,0.1-0.6,0.2s-0.1,0.6-0.1,1.3h1.1v0.8h-1.1v5.4h-1v-5.4h-0.9v-0.8h0.9v-1C300.4,168.3,300.5,168,300.6,167.8z"/>
		<path d="M308.3,170.4c0.6,0.5,0.8,1.3,0.8,2.4c0,1-0.2,1.8-0.7,2.5c-0.5,0.7-1.2,1-2.3,1c-0.9,0-1.5-0.3-2-0.9
			c-0.5-0.6-0.8-1.4-0.8-2.4c0-1.1,0.3-1.9,0.8-2.5c0.5-0.6,1.2-0.9,2.1-0.9C307.1,169.5,307.8,169.8,308.3,170.4z M307.7,174.5
			c0.3-0.5,0.4-1.1,0.4-1.8c0-0.6-0.1-1.1-0.3-1.4c-0.3-0.6-0.8-0.9-1.5-0.9c-0.6,0-1.1,0.2-1.4,0.7c-0.3,0.5-0.4,1.1-0.4,1.8
			c0,0.7,0.1,1.2,0.4,1.7c0.3,0.4,0.7,0.7,1.4,0.7C306.9,175.3,307.4,175,307.7,174.5z"/>
		<path d="M310.8,169.7h1v1.1c0.1-0.2,0.3-0.5,0.6-0.8s0.7-0.5,1.1-0.5c0,0,0.1,0,0.1,0s0.1,0,0.2,0v1.1c-0.1,0-0.1,0-0.2,0
			s-0.1,0-0.2,0c-0.5,0-0.9,0.2-1.2,0.5s-0.4,0.7-0.4,1.2v3.6h-1.1V169.7z"/>
		<path d="M315.1,169.7h1v0.9c0.2-0.3,0.5-0.5,0.7-0.7c0.3-0.2,0.7-0.4,1.2-0.4c0.5,0,0.9,0.1,1.2,0.4c0.2,0.1,0.3,0.3,0.5,0.6
			c0.2-0.3,0.5-0.6,0.8-0.7s0.7-0.2,1.1-0.2c0.8,0,1.4,0.3,1.7,0.9c0.2,0.3,0.2,0.8,0.2,1.3v4.2h-1.1v-4.4c0-0.4-0.1-0.7-0.3-0.9
			s-0.5-0.2-0.8-0.2c-0.4,0-0.8,0.1-1.1,0.4s-0.4,0.7-0.4,1.4v3.7h-1.1v-4.1c0-0.4-0.1-0.7-0.2-0.9c-0.2-0.3-0.5-0.4-0.9-0.4
			c-0.4,0-0.8,0.2-1.1,0.5s-0.5,0.9-0.5,1.7v3.3h-1.1V169.7z"/>
		<path d="M326,174c0,0.4,0.1,0.6,0.3,0.8c0.3,0.3,0.7,0.5,1.4,0.5c0.4,0,0.7-0.1,1.1-0.3s0.5-0.4,0.5-0.8c0-0.3-0.1-0.5-0.4-0.6
			c-0.2-0.1-0.5-0.2-0.9-0.3l-0.9-0.2c-0.5-0.1-0.9-0.3-1.2-0.4c-0.5-0.3-0.7-0.7-0.7-1.2c0-0.6,0.2-1.1,0.7-1.4
			c0.4-0.4,1-0.6,1.7-0.6c1,0,1.6,0.3,2.1,0.8c0.3,0.4,0.4,0.7,0.4,1.1h-1c0-0.2-0.1-0.5-0.3-0.6c-0.2-0.3-0.7-0.4-1.3-0.4
			c-0.4,0-0.7,0.1-0.9,0.2c-0.2,0.2-0.3,0.4-0.3,0.6c0,0.3,0.1,0.5,0.4,0.7c0.2,0.1,0.4,0.2,0.7,0.3l0.7,0.2
			c0.8,0.2,1.3,0.4,1.6,0.5c0.4,0.3,0.6,0.7,0.6,1.3c0,0.6-0.2,1-0.6,1.4c-0.4,0.4-1.1,0.6-2,0.6c-0.9,0-1.6-0.2-2-0.6
			s-0.6-0.9-0.6-1.6H326z"/>
		<path d="M336.2,170.2c-0.1-0.3-0.2-0.6-0.2-0.8c0-0.6,0.2-1,0.6-1.4c0.4-0.4,0.9-0.5,1.5-0.5c0.6,0,1.1,0.2,1.4,0.5
			s0.5,0.7,0.5,1.2c0,0.6-0.2,1-0.5,1.4c-0.2,0.2-0.5,0.5-1,0.8l1.6,1.9c0.1-0.3,0.2-0.5,0.2-0.7s0.1-0.4,0.1-0.6h1
			c-0.1,0.6-0.2,1.1-0.4,1.6s-0.3,0.7-0.3,0.6l1.5,1.9h-1.4l-0.8-1c-0.3,0.3-0.6,0.6-0.9,0.8c-0.5,0.3-1,0.4-1.6,0.4
			c-0.9,0-1.5-0.2-1.9-0.7c-0.4-0.5-0.6-1-0.6-1.6c0-0.7,0.2-1.2,0.6-1.6c0.2-0.3,0.7-0.6,1.3-1
			C336.6,170.8,336.4,170.4,336.2,170.2z M338.8,175c0.3-0.2,0.6-0.4,0.7-0.7l-1.9-2.4c-0.5,0.4-0.9,0.6-1.1,0.8
			c-0.3,0.3-0.4,0.7-0.4,1.1c0,0.5,0.2,0.8,0.5,1.1s0.7,0.4,1.1,0.4C338.1,175.3,338.5,175.2,338.8,175z M338.7,170.1
			c0.2-0.3,0.3-0.6,0.3-0.9c0-0.3-0.1-0.5-0.3-0.7c-0.2-0.2-0.4-0.3-0.7-0.3c-0.4,0-0.7,0.1-0.9,0.4c-0.1,0.1-0.1,0.3-0.1,0.5
			c0,0.2,0.1,0.5,0.2,0.7c0.1,0.2,0.3,0.5,0.7,0.8C338.3,170.5,338.6,170.3,338.7,170.1z"/>
		<path d="M282,181.8h1.2v7.6h4.3v1H282V181.8z"/>
		<path d="M288.9,181.8h1.1v1.2h-1.1V181.8z M288.9,184.2h1.1v6.2h-1.1V184.2z"/>
		<path d="M292.3,182.2c0.2-0.4,0.7-0.5,1.4-0.5c0.1,0,0.1,0,0.2,0s0.2,0,0.2,0v1c-0.1,0-0.2,0-0.2,0c0,0-0.1,0-0.1,0
			c-0.3,0-0.5,0.1-0.6,0.2s-0.1,0.6-0.1,1.3h1.1v0.8h-1.1v5.4h-1V185h-0.9v-0.8h0.9v-1C292.1,182.7,292.2,182.4,292.3,182.2z"/>
		<path d="M299.3,184.3c0.4,0.2,0.7,0.5,0.9,0.8c0.2,0.3,0.3,0.7,0.4,1.1c0.1,0.3,0.1,0.8,0.1,1.4h-4.6c0,0.6,0.2,1.2,0.4,1.5
			c0.3,0.4,0.7,0.6,1.3,0.6c0.5,0,1-0.2,1.3-0.5c0.2-0.2,0.3-0.5,0.4-0.7h1c0,0.2-0.1,0.5-0.3,0.8s-0.3,0.5-0.5,0.7
			c-0.3,0.3-0.7,0.5-1.2,0.6c-0.3,0.1-0.5,0.1-0.9,0.1c-0.8,0-1.4-0.3-2-0.9c-0.5-0.6-0.8-1.4-0.8-2.4c0-1,0.3-1.8,0.8-2.5
			c0.5-0.6,1.3-0.9,2.1-0.9C298.5,184,298.9,184.1,299.3,184.3z M299.7,186.8c0-0.5-0.1-0.8-0.3-1.1c-0.3-0.5-0.8-0.8-1.4-0.8
			c-0.5,0-0.9,0.2-1.2,0.5s-0.5,0.8-0.5,1.3H299.7z"/>
		<path d="M302.9,182.2c0.2-0.4,0.7-0.5,1.4-0.5c0.1,0,0.1,0,0.2,0s0.2,0,0.2,0v1c-0.1,0-0.2,0-0.2,0c0,0-0.1,0-0.1,0
			c-0.3,0-0.5,0.1-0.6,0.2s-0.1,0.6-0.1,1.3h1.1v0.8h-1.1v5.4h-1V185h-0.9v-0.8h0.9v-1C302.7,182.7,302.8,182.4,302.9,182.2z"/>
		<path d="M310.6,184.8c0.6,0.5,0.8,1.3,0.8,2.4c0,1-0.2,1.8-0.7,2.5c-0.5,0.7-1.2,1-2.3,1c-0.9,0-1.5-0.3-2-0.9
			c-0.5-0.6-0.8-1.4-0.8-2.4c0-1.1,0.3-1.9,0.8-2.5c0.5-0.6,1.2-0.9,2.1-0.9C309.4,183.9,310.1,184.2,310.6,184.8z M310,188.9
			c0.3-0.5,0.4-1.1,0.4-1.8c0-0.6-0.1-1.1-0.3-1.4c-0.3-0.6-0.8-0.9-1.5-0.9c-0.6,0-1.1,0.2-1.4,0.7c-0.3,0.5-0.4,1.1-0.4,1.8
			c0,0.7,0.1,1.2,0.4,1.7c0.3,0.4,0.7,0.7,1.4,0.7C309.2,189.7,309.7,189.5,310,188.9z"/>
		<path d="M313.1,184.1h1v1.1c0.1-0.2,0.3-0.5,0.6-0.8s0.7-0.5,1.1-0.5c0,0,0.1,0,0.1,0s0.1,0,0.2,0v1.1c-0.1,0-0.1,0-0.2,0
			s-0.1,0-0.2,0c-0.5,0-0.9,0.2-1.2,0.5s-0.4,0.7-0.4,1.2v3.6h-1.1V184.1z"/>
		<path d="M317.4,184.1h1v0.9c0.2-0.3,0.5-0.5,0.7-0.7c0.3-0.2,0.7-0.4,1.2-0.4c0.5,0,0.9,0.1,1.2,0.4c0.2,0.1,0.3,0.3,0.5,0.6
			c0.2-0.3,0.5-0.6,0.8-0.7s0.7-0.2,1.1-0.2c0.8,0,1.4,0.3,1.7,0.9c0.2,0.3,0.2,0.8,0.2,1.3v4.2h-1.1V186c0-0.4-0.1-0.7-0.3-0.9
			s-0.5-0.2-0.8-0.2c-0.4,0-0.8,0.1-1.1,0.4s-0.4,0.7-0.4,1.4v3.7H321v-4.1c0-0.4-0.1-0.7-0.2-0.9c-0.2-0.3-0.5-0.4-0.9-0.4
			c-0.4,0-0.8,0.2-1.1,0.5s-0.5,0.9-0.5,1.7v3.3h-1.1V184.1z"/>
		<path d="M328.3,188.4c0,0.4,0.1,0.6,0.3,0.8c0.3,0.3,0.7,0.5,1.4,0.5c0.4,0,0.7-0.1,1.1-0.3s0.5-0.4,0.5-0.8
			c0-0.3-0.1-0.5-0.4-0.6c-0.2-0.1-0.5-0.2-0.9-0.3l-0.9-0.2c-0.5-0.1-0.9-0.3-1.2-0.4c-0.5-0.3-0.7-0.7-0.7-1.2
			c0-0.6,0.2-1.1,0.7-1.4c0.4-0.4,1-0.6,1.7-0.6c1,0,1.6,0.3,2.1,0.8c0.3,0.4,0.4,0.7,0.4,1.1h-1c0-0.2-0.1-0.5-0.3-0.6
			c-0.2-0.3-0.7-0.4-1.3-0.4c-0.4,0-0.7,0.1-0.9,0.2c-0.2,0.2-0.3,0.4-0.3,0.6c0,0.3,0.1,0.5,0.4,0.7c0.2,0.1,0.4,0.2,0.7,0.3
			l0.7,0.2c0.8,0.2,1.3,0.4,1.6,0.5c0.4,0.3,0.6,0.7,0.6,1.3c0,0.6-0.2,1-0.6,1.4c-0.4,0.4-1.1,0.6-2,0.6c-0.9,0-1.6-0.2-2-0.6
			s-0.6-0.9-0.6-1.6H328.3z"/>
	</g>
	<g>
		<path d="M413.2,157.4h1.2v3.6h4.4v-3.6h1.2v8.6h-1.2v-4h-4.4v4h-1.2V157.4z"/>
		<path d="M425.4,162.2c0.2,0,0.4-0.1,0.5-0.3c0-0.1,0.1-0.2,0.1-0.4c0-0.4-0.1-0.6-0.4-0.8c-0.3-0.2-0.6-0.2-1.1-0.2
			c-0.5,0-0.9,0.1-1.2,0.4c-0.1,0.2-0.2,0.4-0.3,0.7h-1c0-0.8,0.3-1.3,0.8-1.6s1-0.5,1.7-0.5c0.7,0,1.3,0.1,1.8,0.4
			c0.5,0.3,0.7,0.7,0.7,1.3v3.6c0,0.1,0,0.2,0.1,0.3s0.1,0.1,0.3,0.1c0,0,0.1,0,0.2,0s0.1,0,0.2,0v0.8c-0.2,0-0.3,0.1-0.4,0.1
			s-0.2,0-0.4,0c-0.4,0-0.6-0.1-0.8-0.4c-0.1-0.1-0.1-0.3-0.2-0.6c-0.2,0.3-0.5,0.5-0.9,0.7s-0.8,0.3-1.3,0.3
			c-0.6,0-1.1-0.2-1.4-0.5c-0.4-0.4-0.6-0.8-0.6-1.3c0-0.6,0.2-1,0.5-1.4c0.4-0.3,0.8-0.5,1.4-0.6L425.4,162.2z M423.2,165.1
			c0.2,0.2,0.5,0.3,0.8,0.3c0.4,0,0.7-0.1,1.1-0.3c0.6-0.3,0.9-0.8,0.9-1.4v-0.8c-0.1,0.1-0.3,0.2-0.5,0.2s-0.4,0.1-0.6,0.1
			l-0.6,0.1c-0.4,0.1-0.7,0.1-0.9,0.2c-0.3,0.2-0.5,0.5-0.5,0.9C422.8,164.6,422.9,164.9,423.2,165.1z"/>
		<path d="M429,157.4h1.1v8.6H429V157.4z"/>
		<path d="M432,157.4h1.1v8.6H432V157.4z"/>
		<path d="M443.1,160.4c0.6,0.5,0.8,1.3,0.8,2.4c0,1-0.2,1.8-0.7,2.5c-0.5,0.7-1.2,1-2.3,1c-0.9,0-1.5-0.3-2-0.9
			c-0.5-0.6-0.8-1.4-0.8-2.4c0-1.1,0.3-1.9,0.8-2.5c0.5-0.6,1.2-0.9,2.1-0.9C441.9,159.5,442.5,159.8,443.1,160.4z M442.4,164.5
			c0.3-0.5,0.4-1.1,0.4-1.8c0-0.6-0.1-1.1-0.3-1.4c-0.3-0.6-0.8-0.9-1.5-0.9c-0.6,0-1.1,0.2-1.4,0.7c-0.3,0.5-0.4,1.1-0.4,1.8
			c0,0.7,0.1,1.2,0.4,1.7c0.3,0.4,0.7,0.7,1.4,0.7C441.7,165.3,442.2,165,442.4,164.5z"/>
		<path d="M446,157.8c0.2-0.4,0.7-0.5,1.4-0.5c0.1,0,0.1,0,0.2,0s0.2,0,0.2,0v1c-0.1,0-0.2,0-0.2,0c0,0-0.1,0-0.1,0
			c-0.3,0-0.5,0.1-0.6,0.2s-0.1,0.6-0.1,1.3h1.1v0.8h-1.1v5.4h-1v-5.4h-0.9v-0.8h0.9v-1C445.8,158.3,445.9,158,446,157.8z"/>
		<path d="M414.5,171.8h1.2v3.6h4.4v-3.6h1.2v8.6h-1.2v-4h-4.4v4h-1.2V171.8z"/>
		<path d="M427.9,174.8c0.6,0.5,0.8,1.3,0.8,2.4c0,1-0.2,1.8-0.7,2.5c-0.5,0.7-1.2,1-2.3,1c-0.9,0-1.5-0.3-2-0.9
			c-0.5-0.6-0.8-1.4-0.8-2.4c0-1.1,0.3-1.9,0.8-2.5c0.5-0.6,1.2-0.9,2.1-0.9C426.6,173.9,427.3,174.2,427.9,174.8z M427.2,178.9
			c0.3-0.5,0.4-1.1,0.4-1.8c0-0.6-0.1-1.1-0.3-1.4c-0.3-0.6-0.8-0.9-1.5-0.9c-0.6,0-1.1,0.2-1.4,0.7c-0.3,0.5-0.4,1.1-0.4,1.8
			c0,0.7,0.1,1.2,0.4,1.7c0.3,0.4,0.7,0.7,1.4,0.7C426.5,179.7,427,179.5,427.2,178.9z"/>
		<path d="M430.3,174.1h1v1.1c0.1-0.2,0.3-0.5,0.6-0.8s0.7-0.5,1.1-0.5c0,0,0.1,0,0.1,0s0.1,0,0.2,0v1.1c-0.1,0-0.1,0-0.2,0
			s-0.1,0-0.2,0c-0.5,0-0.9,0.2-1.2,0.5s-0.4,0.7-0.4,1.2v3.6h-1.1V174.1z"/>
		<path d="M434.6,174.1h1v0.9c0.3-0.4,0.6-0.6,0.9-0.8s0.7-0.2,1.1-0.2c0.9,0,1.5,0.3,1.8,0.9c0.2,0.3,0.3,0.8,0.3,1.5v4h-1.1v-4
			c0-0.4-0.1-0.7-0.2-0.9c-0.2-0.4-0.5-0.6-1-0.6c-0.2,0-0.5,0-0.6,0.1c-0.3,0.1-0.5,0.3-0.8,0.5c-0.2,0.2-0.3,0.4-0.3,0.6
			s-0.1,0.5-0.1,0.9v3.3h-1.1V174.1z"/>
		<path d="M442.2,178.4c0,0.4,0.1,0.6,0.3,0.8c0.3,0.3,0.7,0.5,1.4,0.5c0.4,0,0.7-0.1,1.1-0.3s0.5-0.4,0.5-0.8
			c0-0.3-0.1-0.5-0.4-0.6c-0.2-0.1-0.5-0.2-0.9-0.3l-0.9-0.2c-0.5-0.1-0.9-0.3-1.2-0.4c-0.5-0.3-0.7-0.7-0.7-1.2
			c0-0.6,0.2-1.1,0.7-1.4c0.4-0.4,1-0.6,1.7-0.6c1,0,1.6,0.3,2.1,0.8c0.3,0.4,0.4,0.7,0.4,1.1h-1c0-0.2-0.1-0.5-0.3-0.6
			c-0.2-0.3-0.7-0.4-1.3-0.4c-0.4,0-0.7,0.1-0.9,0.2c-0.2,0.2-0.3,0.4-0.3,0.6c0,0.3,0.1,0.5,0.4,0.7c0.2,0.1,0.4,0.2,0.7,0.3
			l0.7,0.2c0.8,0.2,1.3,0.4,1.6,0.5c0.4,0.3,0.6,0.7,0.6,1.3c0,0.6-0.2,1-0.6,1.4c-0.4,0.4-1.1,0.6-2,0.6c-0.9,0-1.6-0.2-2-0.6
			s-0.6-0.9-0.6-1.6H442.2z"/>
		<path d="M412.6,189c-0.1-0.3-0.2-0.6-0.2-0.8c0-0.6,0.2-1,0.6-1.4c0.4-0.4,0.9-0.5,1.5-0.5c0.6,0,1.1,0.2,1.4,0.5s0.5,0.7,0.5,1.2
			c0,0.6-0.2,1-0.5,1.4c-0.2,0.2-0.5,0.5-1,0.8l1.6,1.9c0.1-0.3,0.2-0.5,0.2-0.7s0.1-0.4,0.1-0.6h1c-0.1,0.6-0.2,1.1-0.4,1.6
			s-0.3,0.7-0.3,0.6l1.5,1.9h-1.4l-0.8-1c-0.3,0.3-0.6,0.6-0.9,0.8c-0.5,0.3-1,0.4-1.6,0.4c-0.9,0-1.5-0.2-1.9-0.7
			c-0.4-0.5-0.6-1-0.6-1.6c0-0.7,0.2-1.2,0.6-1.6c0.2-0.3,0.7-0.6,1.3-1C413,189.6,412.7,189.2,412.6,189z M415.1,193.8
			c0.3-0.2,0.6-0.4,0.7-0.7l-1.9-2.4c-0.5,0.4-0.9,0.6-1.1,0.8c-0.3,0.3-0.4,0.7-0.4,1.1c0,0.5,0.2,0.8,0.5,1.1s0.7,0.4,1.1,0.4
			C414.4,194.1,414.8,194,415.1,193.8z M415,188.9c0.2-0.3,0.3-0.6,0.3-0.9c0-0.3-0.1-0.5-0.3-0.7c-0.2-0.2-0.4-0.3-0.7-0.3
			c-0.4,0-0.7,0.1-0.9,0.4c-0.1,0.1-0.1,0.3-0.1,0.5c0,0.2,0.1,0.5,0.2,0.7c0.1,0.2,0.3,0.5,0.7,0.8
			C414.6,189.3,414.9,189.1,415,188.9z"/>
		<path d="M429.8,186.2v1h-2.9v7.6h-1.2v-7.6h-2.9v-1H429.8z"/>
		<path d="M433.5,188.7c0.4,0.2,0.7,0.5,0.9,0.8c0.2,0.3,0.3,0.7,0.4,1.1c0.1,0.3,0.1,0.8,0.1,1.4h-4.6c0,0.6,0.2,1.2,0.4,1.5
			c0.3,0.4,0.7,0.6,1.3,0.6c0.5,0,1-0.2,1.3-0.5c0.2-0.2,0.3-0.5,0.4-0.7h1c0,0.2-0.1,0.5-0.3,0.8s-0.3,0.5-0.5,0.7
			c-0.3,0.3-0.7,0.5-1.2,0.6c-0.3,0.1-0.5,0.1-0.9,0.1c-0.8,0-1.4-0.3-2-0.9c-0.5-0.6-0.8-1.4-0.8-2.4c0-1,0.3-1.8,0.8-2.5
			c0.5-0.6,1.3-0.9,2.1-0.9C432.7,188.4,433.1,188.5,433.5,188.7z M433.9,191.2c0-0.5-0.1-0.8-0.3-1.1c-0.3-0.5-0.8-0.8-1.4-0.8
			c-0.5,0-0.9,0.2-1.2,0.5s-0.5,0.8-0.5,1.3H433.9z"/>
		<path d="M440.5,188.7c0.4,0.2,0.7,0.5,0.9,0.8c0.2,0.3,0.3,0.7,0.4,1.1c0.1,0.3,0.1,0.8,0.1,1.4h-4.6c0,0.6,0.2,1.2,0.4,1.5
			c0.3,0.4,0.7,0.6,1.3,0.6c0.5,0,1-0.2,1.3-0.5c0.2-0.2,0.3-0.5,0.4-0.7h1c0,0.2-0.1,0.5-0.3,0.8s-0.3,0.5-0.5,0.7
			c-0.3,0.3-0.7,0.5-1.2,0.6c-0.3,0.1-0.5,0.1-0.9,0.1c-0.8,0-1.4-0.3-2-0.9c-0.5-0.6-0.8-1.4-0.8-2.4c0-1,0.3-1.8,0.8-2.5
			c0.5-0.6,1.3-0.9,2.1-0.9C439.7,188.4,440.1,188.5,440.5,188.7z M440.9,191.2c0-0.5-0.1-0.8-0.3-1.1c-0.3-0.5-0.8-0.8-1.4-0.8
			c-0.5,0-0.9,0.2-1.2,0.5s-0.5,0.8-0.5,1.3H440.9z"/>
		<path d="M443.8,186.8h1.1v1.8h1v0.9h-1v4.1c0,0.2,0.1,0.4,0.2,0.4c0.1,0,0.2,0.1,0.4,0.1c0.1,0,0.1,0,0.2,0s0.1,0,0.2,0v0.8
			c-0.1,0-0.2,0.1-0.4,0.1s-0.3,0-0.4,0c-0.5,0-0.8-0.1-1-0.4s-0.3-0.6-0.3-1v-4.2H443v-0.9h0.8V186.8z"/>
		<path d="M447.2,186.2h1.1v3.2c0.2-0.3,0.5-0.5,0.7-0.7c0.3-0.2,0.8-0.3,1.3-0.3c0.9,0,1.5,0.3,1.9,1c0.2,0.3,0.3,0.8,0.3,1.4v4
			h-1.1v-4c0-0.5-0.1-0.8-0.2-1c-0.2-0.3-0.6-0.5-1.1-0.5c-0.4,0-0.8,0.2-1.2,0.5s-0.5,0.9-0.5,1.7v3.3h-1.1V186.2z"/>
	</g>
	<g>
		<path d="M273.3,60.4h3.9c0.6,0,1.2,0.1,1.6,0.3c0.8,0.4,1.2,1,1.2,2c0,0.5-0.1,0.9-0.3,1.3s-0.5,0.6-0.9,0.8
			c0.3,0.1,0.6,0.3,0.8,0.5s0.3,0.6,0.3,1.1l0,1.2c0,0.3,0,0.6,0.1,0.7c0.1,0.3,0.2,0.4,0.4,0.5V69h-1.4c0-0.1-0.1-0.2-0.1-0.3
			s0-0.3-0.1-0.7l-0.1-1.4c0-0.6-0.2-0.9-0.6-1.1c-0.2-0.1-0.6-0.2-1-0.2h-2.6V69h-1.2V60.4z M277.1,64.3c0.5,0,1-0.1,1.3-0.3
			s0.5-0.6,0.5-1.2c0-0.6-0.2-1-0.6-1.3c-0.2-0.1-0.5-0.2-0.9-0.2h-2.8v2.9H277.1z"/>
		<path d="M285.9,62.9c0.4,0.2,0.7,0.5,0.9,0.8c0.2,0.3,0.3,0.7,0.4,1.1c0.1,0.3,0.1,0.8,0.1,1.4h-4.6c0,0.6,0.2,1.2,0.4,1.5
			c0.3,0.4,0.7,0.6,1.3,0.6c0.5,0,1-0.2,1.3-0.5c0.2-0.2,0.3-0.5,0.4-0.7h1c0,0.2-0.1,0.5-0.3,0.8s-0.3,0.5-0.5,0.7
			c-0.3,0.3-0.7,0.5-1.2,0.6c-0.3,0.1-0.5,0.1-0.9,0.1c-0.8,0-1.4-0.3-2-0.9c-0.5-0.6-0.8-1.4-0.8-2.4c0-1,0.3-1.8,0.8-2.5
			c0.5-0.6,1.3-0.9,2.1-0.9C285,62.6,285.5,62.7,285.9,62.9z M286.3,65.4c0-0.5-0.1-0.8-0.3-1.1c-0.3-0.5-0.8-0.8-1.4-0.8
			c-0.5,0-0.9,0.2-1.2,0.5s-0.5,0.8-0.5,1.3H286.3z"/>
		<path d="M292.5,63c0.2,0.1,0.4,0.3,0.6,0.6v-0.8h1v5.7c0,0.8-0.1,1.4-0.4,1.9c-0.4,0.9-1.3,1.3-2.5,1.3c-0.7,0-1.2-0.2-1.7-0.5
			s-0.7-0.8-0.8-1.4h1.1c0.1,0.3,0.2,0.5,0.3,0.7c0.2,0.2,0.6,0.4,1.1,0.4c0.8,0,1.3-0.3,1.6-0.9c0.1-0.3,0.2-0.9,0.2-1.8
			c-0.2,0.3-0.5,0.6-0.8,0.7c-0.3,0.2-0.7,0.2-1.2,0.2c-0.7,0-1.3-0.2-1.8-0.7s-0.8-1.3-0.8-2.4c0-1.1,0.3-1.9,0.8-2.5
			s1.1-0.9,1.9-0.9C291.7,62.6,292.1,62.7,292.5,63z M292.6,64.1c-0.3-0.4-0.7-0.6-1.2-0.6c-0.7,0-1.2,0.3-1.5,1
			c-0.1,0.4-0.2,0.9-0.2,1.5c0,0.7,0.1,1.2,0.4,1.6c0.3,0.4,0.7,0.6,1.2,0.6c0.8,0,1.3-0.3,1.6-1c0.2-0.4,0.3-0.8,0.3-1.4
			C293.1,65.1,292.9,64.5,292.6,64.1z"/>
		<path d="M296,60.4h1.1v1.2H296V60.4z M296,62.8h1.1V69H296V62.8z"/>
		<path d="M303.5,63.4c0.6,0.5,0.8,1.3,0.8,2.4c0,1-0.2,1.8-0.7,2.5c-0.5,0.7-1.2,1-2.3,1c-0.9,0-1.5-0.3-2-0.9
			c-0.5-0.6-0.8-1.4-0.8-2.4c0-1.1,0.3-1.9,0.8-2.5c0.5-0.6,1.2-0.9,2.1-0.9C302.2,62.5,302.9,62.8,303.5,63.4z M302.8,67.5
			c0.3-0.5,0.4-1.1,0.4-1.8c0-0.6-0.1-1.1-0.3-1.4c-0.3-0.6-0.8-0.9-1.5-0.9c-0.6,0-1.1,0.2-1.4,0.7c-0.3,0.5-0.4,1.1-0.4,1.8
			c0,0.7,0.1,1.2,0.4,1.7c0.3,0.4,0.7,0.7,1.4,0.7C302.1,68.3,302.6,68,302.8,67.5z"/>
		<path d="M305.9,62.7h1v0.9c0.3-0.4,0.6-0.6,0.9-0.8s0.7-0.2,1.1-0.2c0.9,0,1.5,0.3,1.8,0.9c0.2,0.3,0.3,0.8,0.3,1.5v4h-1.1v-4
			c0-0.4-0.1-0.7-0.2-0.9c-0.2-0.4-0.5-0.6-1-0.6c-0.2,0-0.5,0-0.6,0.1c-0.3,0.1-0.5,0.3-0.8,0.5c-0.2,0.2-0.3,0.4-0.3,0.6
			s-0.1,0.5-0.1,0.9V69h-1.1V62.7z"/>
		<path d="M316.2,65.2c0.2,0,0.4-0.1,0.5-0.3c0-0.1,0.1-0.2,0.1-0.4c0-0.4-0.1-0.6-0.4-0.8c-0.3-0.2-0.6-0.2-1.1-0.2
			c-0.5,0-0.9,0.1-1.2,0.4c-0.1,0.2-0.2,0.4-0.3,0.7h-1c0-0.8,0.3-1.3,0.8-1.6s1-0.5,1.7-0.5c0.7,0,1.3,0.1,1.8,0.4
			c0.5,0.3,0.7,0.7,0.7,1.3v3.6c0,0.1,0,0.2,0.1,0.3s0.1,0.1,0.3,0.1c0,0,0.1,0,0.2,0s0.1,0,0.2,0V69c-0.2,0-0.3,0.1-0.4,0.1
			s-0.2,0-0.4,0c-0.4,0-0.6-0.1-0.8-0.4c-0.1-0.1-0.1-0.3-0.2-0.6c-0.2,0.3-0.5,0.5-0.9,0.7s-0.8,0.3-1.3,0.3
			c-0.6,0-1.1-0.2-1.4-0.5c-0.4-0.4-0.6-0.8-0.6-1.3c0-0.6,0.2-1,0.5-1.4c0.4-0.3,0.8-0.5,1.4-0.6L316.2,65.2z M314,68.1
			c0.2,0.2,0.5,0.3,0.8,0.3c0.4,0,0.7-0.1,1.1-0.3c0.6-0.3,0.9-0.8,0.9-1.4v-0.8c-0.1,0.1-0.3,0.2-0.5,0.2s-0.4,0.1-0.6,0.1
			l-0.6,0.1c-0.4,0.1-0.7,0.1-0.9,0.2c-0.3,0.2-0.5,0.5-0.5,0.9C313.7,67.6,313.8,67.9,314,68.1z"/>
		<path d="M319.9,60.4h1.1V69h-1.1V60.4z"/>
		<path d="M265.6,74.8h1.2v3.6h4.4v-3.6h1.2v8.6h-1.2v-4h-4.4v4h-1.2V74.8z"/>
		<path d="M274.4,74.8h1.1V76h-1.1V74.8z M274.4,77.2h1.1v6.2h-1.1V77.2z"/>
		<path d="M278,81.4c0,0.4,0.1,0.6,0.3,0.8c0.3,0.3,0.7,0.5,1.4,0.5c0.4,0,0.7-0.1,1.1-0.3s0.5-0.4,0.5-0.8c0-0.3-0.1-0.5-0.4-0.6
			c-0.2-0.1-0.5-0.2-0.9-0.3l-0.9-0.2c-0.5-0.1-0.9-0.3-1.2-0.4c-0.5-0.3-0.7-0.7-0.7-1.2c0-0.6,0.2-1.1,0.7-1.4
			c0.4-0.4,1-0.6,1.7-0.6c1,0,1.6,0.3,2.1,0.8c0.3,0.4,0.4,0.7,0.4,1.1h-1c0-0.2-0.1-0.5-0.3-0.6c-0.2-0.3-0.7-0.4-1.3-0.4
			c-0.4,0-0.7,0.1-0.9,0.2c-0.2,0.2-0.3,0.4-0.3,0.6c0,0.3,0.1,0.5,0.4,0.7c0.2,0.1,0.4,0.2,0.7,0.3l0.7,0.2
			c0.8,0.2,1.3,0.4,1.6,0.5c0.4,0.3,0.6,0.7,0.6,1.3c0,0.6-0.2,1-0.6,1.4c-0.4,0.4-1.1,0.6-2,0.6c-0.9,0-1.6-0.2-2-0.6
			s-0.6-0.9-0.6-1.6H278z"/>
		<path d="M283.9,75.4h1.1v1.8h1V78h-1v4.1c0,0.2,0.1,0.4,0.2,0.4c0.1,0,0.2,0.1,0.4,0.1c0.1,0,0.1,0,0.2,0s0.1,0,0.2,0v0.8
			c-0.1,0-0.2,0.1-0.4,0.1s-0.3,0-0.4,0c-0.5,0-0.8-0.1-1-0.4s-0.3-0.6-0.3-1V78H283v-0.9h0.8V75.4z"/>
		<path d="M291.9,77.8c0.6,0.5,0.8,1.3,0.8,2.4c0,1-0.2,1.8-0.7,2.5c-0.5,0.7-1.2,1-2.3,1c-0.9,0-1.5-0.3-2-0.9
			c-0.5-0.6-0.8-1.4-0.8-2.4c0-1.1,0.3-1.9,0.8-2.5c0.5-0.6,1.2-0.9,2.1-0.9C290.6,76.9,291.3,77.2,291.9,77.8z M291.2,81.9
			c0.3-0.5,0.4-1.1,0.4-1.8c0-0.6-0.1-1.1-0.3-1.4c-0.3-0.6-0.8-0.9-1.5-0.9c-0.6,0-1.1,0.2-1.4,0.7c-0.3,0.5-0.4,1.1-0.4,1.8
			c0,0.7,0.1,1.2,0.4,1.7c0.3,0.4,0.7,0.7,1.4,0.7C290.5,82.7,291,82.5,291.2,81.9z"/>
		<path d="M294.3,77.1h1v1.1c0.1-0.2,0.3-0.5,0.6-0.8s0.7-0.5,1.1-0.5c0,0,0.1,0,0.1,0s0.1,0,0.2,0v1.1c-0.1,0-0.1,0-0.2,0
			s-0.1,0-0.2,0c-0.5,0-0.9,0.2-1.2,0.5s-0.4,0.7-0.4,1.2v3.6h-1.1V77.1z"/>
		<path d="M302.5,77.1h1.2c-0.1,0.4-0.5,1.3-1,2.8c-0.4,1.1-0.7,2-1,2.6c-0.6,1.6-1,2.6-1.3,2.9c-0.2,0.4-0.7,0.5-1.3,0.5
			c-0.1,0-0.3,0-0.3,0c-0.1,0-0.2,0-0.3-0.1v-1c0.2,0.1,0.3,0.1,0.4,0.1c0.1,0,0.2,0,0.2,0c0.2,0,0.3,0,0.4-0.1
			c0.1-0.1,0.2-0.1,0.2-0.2c0,0,0.1-0.2,0.2-0.5c0.1-0.3,0.2-0.5,0.3-0.6l-2.3-6.5h1.2l1.7,5.1L302.5,77.1z"/>
		<path d="M308.7,74.8h1.2v3.6h4.4v-3.6h1.2v8.6h-1.2v-4h-4.4v4h-1.2V74.8z"/>
		<path d="M320.9,79.6c0.2,0,0.4-0.1,0.5-0.3c0-0.1,0.1-0.2,0.1-0.4c0-0.4-0.1-0.6-0.4-0.8c-0.3-0.2-0.6-0.2-1.1-0.2
			c-0.5,0-0.9,0.1-1.2,0.4c-0.1,0.2-0.2,0.4-0.3,0.7h-1c0-0.8,0.3-1.3,0.8-1.6s1-0.5,1.7-0.5c0.7,0,1.3,0.1,1.8,0.4
			c0.5,0.3,0.7,0.7,0.7,1.3v3.6c0,0.1,0,0.2,0.1,0.3s0.1,0.1,0.3,0.1c0,0,0.1,0,0.2,0s0.1,0,0.2,0v0.8c-0.2,0-0.3,0.1-0.4,0.1
			s-0.2,0-0.4,0c-0.4,0-0.6-0.1-0.8-0.4c-0.1-0.1-0.1-0.3-0.2-0.6c-0.2,0.3-0.5,0.5-0.9,0.7s-0.8,0.3-1.3,0.3
			c-0.6,0-1.1-0.2-1.4-0.5c-0.4-0.4-0.6-0.8-0.6-1.3c0-0.6,0.2-1,0.5-1.4c0.4-0.3,0.8-0.5,1.4-0.6L320.9,79.6z M318.6,82.5
			c0.2,0.2,0.5,0.3,0.8,0.3c0.4,0,0.7-0.1,1.1-0.3c0.6-0.3,0.9-0.8,0.9-1.4v-0.8c-0.1,0.1-0.3,0.2-0.5,0.2s-0.4,0.1-0.6,0.1
			l-0.6,0.1c-0.4,0.1-0.7,0.1-0.9,0.2c-0.3,0.2-0.5,0.5-0.5,0.9C318.3,82,318.4,82.3,318.6,82.5z"/>
		<path d="M324.5,74.8h1.1v8.6h-1.1V74.8z"/>
		<path d="M327.5,74.8h1.1v8.6h-1.1V74.8z"/>
	</g>
	<g>
		<path d="M132.8,80.4h6.2v1.1h-5.1v2.6h4.7v1h-4.7V88h5.2v1h-6.3V80.4z"/>
		<path d="M140.2,82.7h1.4l1.4,2.2l1.5-2.2l1.3,0l-2.1,3l2.2,3.2h-1.3l-1.6-2.4l-1.5,2.4h-1.3l2.2-3.2L140.2,82.7z"/>
		<path d="M147,82.8h1v0.8c0.2-0.3,0.4-0.5,0.7-0.7c0.4-0.2,0.8-0.4,1.3-0.4c0.7,0,1.3,0.3,1.8,0.8s0.7,1.3,0.7,2.3
			c0,1.4-0.4,2.3-1.1,2.9c-0.5,0.4-1,0.6-1.6,0.6c-0.5,0-0.9-0.1-1.2-0.3c-0.2-0.1-0.4-0.3-0.6-0.6v3.2H147V82.8z M151,87.7
			c0.3-0.4,0.5-1,0.5-1.8c0-0.5-0.1-0.9-0.2-1.3c-0.3-0.7-0.8-1-1.5-1c-0.7,0-1.2,0.4-1.5,1.1c-0.1,0.4-0.2,0.9-0.2,1.5
			c0,0.5,0.1,0.9,0.2,1.2c0.3,0.6,0.8,1,1.5,1C150.3,88.3,150.7,88.1,151,87.7z"/>
		<path d="M154.1,80.4h1.1V89h-1.1V80.4z"/>
		<path d="M161.6,83.4c0.6,0.5,0.8,1.3,0.8,2.4c0,1-0.2,1.8-0.7,2.5c-0.5,0.7-1.2,1-2.3,1c-0.9,0-1.5-0.3-2-0.9
			c-0.5-0.6-0.8-1.4-0.8-2.4c0-1.1,0.3-1.9,0.8-2.5c0.5-0.6,1.2-0.9,2.1-0.9C160.4,82.5,161.1,82.8,161.6,83.4z M161,87.5
			c0.3-0.5,0.4-1.1,0.4-1.8c0-0.6-0.1-1.1-0.3-1.4c-0.3-0.6-0.8-0.9-1.5-0.9c-0.6,0-1.1,0.2-1.4,0.7c-0.3,0.5-0.4,1.1-0.4,1.8
			c0,0.7,0.1,1.2,0.4,1.7c0.3,0.4,0.7,0.7,1.4,0.7C160.2,88.3,160.7,88,161,87.5z"/>
		<path d="M164.1,82.7h1v1.1c0.1-0.2,0.3-0.5,0.6-0.8s0.7-0.5,1.1-0.5c0,0,0.1,0,0.1,0s0.1,0,0.2,0v1.1c-0.1,0-0.1,0-0.2,0
			s-0.1,0-0.2,0c-0.5,0-0.9,0.2-1.2,0.5s-0.4,0.7-0.4,1.2V89h-1.1V82.7z"/>
		<path d="M172.2,82.9c0.4,0.2,0.7,0.5,0.9,0.8c0.2,0.3,0.3,0.7,0.4,1.1c0.1,0.3,0.1,0.8,0.1,1.4h-4.6c0,0.6,0.2,1.2,0.4,1.5
			c0.3,0.4,0.7,0.6,1.3,0.6c0.5,0,1-0.2,1.3-0.5c0.2-0.2,0.3-0.5,0.4-0.7h1c0,0.2-0.1,0.5-0.3,0.8s-0.3,0.5-0.5,0.7
			c-0.3,0.3-0.7,0.5-1.2,0.6c-0.3,0.1-0.5,0.1-0.9,0.1c-0.8,0-1.4-0.3-2-0.9c-0.5-0.6-0.8-1.4-0.8-2.4c0-1,0.3-1.8,0.8-2.5
			c0.5-0.6,1.3-0.9,2.1-0.9C171.4,82.6,171.8,82.7,172.2,82.9z M172.6,85.4c0-0.5-0.1-0.8-0.3-1.1c-0.3-0.5-0.8-0.8-1.4-0.8
			c-0.5,0-0.9,0.2-1.2,0.5s-0.5,0.8-0.5,1.3H172.6z"/>
		<path d="M119.9,94.8h1.4l2.5,4.1l2.5-4.1h1.4l-3.3,5.1v3.5h-1.2v-3.5L119.9,94.8z"/>
		<path d="M131.5,97.3c0.4,0.2,0.7,0.5,0.9,0.8c0.2,0.3,0.3,0.7,0.4,1.1c0.1,0.3,0.1,0.8,0.1,1.4h-4.6c0,0.6,0.2,1.2,0.4,1.5
			c0.3,0.4,0.7,0.6,1.3,0.6c0.5,0,1-0.2,1.3-0.5c0.2-0.2,0.3-0.5,0.4-0.7h1c0,0.2-0.1,0.5-0.3,0.8s-0.3,0.5-0.5,0.7
			c-0.3,0.3-0.7,0.5-1.2,0.6c-0.3,0.1-0.5,0.1-0.9,0.1c-0.8,0-1.4-0.3-2-0.9c-0.5-0.6-0.8-1.4-0.8-2.4c0-1,0.3-1.8,0.8-2.5
			c0.5-0.6,1.3-0.9,2.1-0.9C130.7,97,131.1,97.1,131.5,97.3z M131.9,99.8c0-0.5-0.1-0.8-0.3-1.1c-0.3-0.5-0.8-0.8-1.4-0.8
			c-0.5,0-0.9,0.2-1.2,0.5s-0.5,0.8-0.5,1.3H131.9z"/>
		<path d="M134.7,94.8h1.1v8.6h-1.1V94.8z"/>
		<path d="M137.6,94.8h1.1v8.6h-1.1V94.8z"/>
		<path d="M145.1,97.8c0.6,0.5,0.8,1.3,0.8,2.4c0,1-0.2,1.8-0.7,2.5c-0.5,0.7-1.2,1-2.3,1c-0.9,0-1.5-0.3-2-0.9
			c-0.5-0.6-0.8-1.4-0.8-2.4c0-1.1,0.3-1.9,0.8-2.5c0.5-0.6,1.2-0.9,2.1-0.9C143.9,96.9,144.6,97.2,145.1,97.8z M144.5,101.9
			c0.3-0.5,0.4-1.1,0.4-1.8c0-0.6-0.1-1.1-0.3-1.4c-0.3-0.6-0.8-0.9-1.5-0.9c-0.6,0-1.1,0.2-1.4,0.7c-0.3,0.5-0.4,1.1-0.4,1.8
			c0,0.7,0.1,1.2,0.4,1.7c0.3,0.4,0.7,0.7,1.4,0.7C143.7,102.7,144.2,102.5,144.5,101.9z"/>
		<path d="M148,97.1l1.2,4.9l1.2-4.9h1.2l1.2,4.9l1.3-4.9h1.1l-1.8,6.3h-1.1l-1.3-4.9l-1.2,4.9h-1.1l-1.8-6.3H148z"/>
		<path d="M157.1,101.4c0,0.4,0.1,0.6,0.3,0.8c0.3,0.3,0.7,0.5,1.4,0.5c0.4,0,0.7-0.1,1.1-0.3s0.5-0.4,0.5-0.8
			c0-0.3-0.1-0.5-0.4-0.6c-0.2-0.1-0.5-0.2-0.9-0.3l-0.9-0.2c-0.5-0.1-0.9-0.3-1.2-0.4c-0.5-0.3-0.7-0.7-0.7-1.2
			c0-0.6,0.2-1.1,0.7-1.4c0.4-0.4,1-0.6,1.7-0.6c1,0,1.6,0.3,2.1,0.8c0.3,0.4,0.4,0.7,0.4,1.1h-1c0-0.2-0.1-0.5-0.3-0.6
			c-0.2-0.3-0.7-0.4-1.3-0.4c-0.4,0-0.7,0.1-0.9,0.2c-0.2,0.2-0.3,0.4-0.3,0.6c0,0.3,0.1,0.5,0.4,0.7c0.2,0.1,0.4,0.2,0.7,0.3
			l0.7,0.2c0.8,0.2,1.3,0.4,1.6,0.5c0.4,0.3,0.6,0.7,0.6,1.3c0,0.6-0.2,1-0.6,1.4c-0.4,0.4-1.1,0.6-2,0.6c-0.9,0-1.6-0.2-2-0.6
			s-0.6-0.9-0.6-1.6H157.1z"/>
		<path d="M163,95.4h1.1v1.8h1V98h-1v4.1c0,0.2,0.1,0.4,0.2,0.4c0.1,0,0.2,0.1,0.4,0.1c0.1,0,0.1,0,0.2,0s0.1,0,0.2,0v0.8
			c-0.1,0-0.2,0.1-0.4,0.1s-0.3,0-0.4,0c-0.5,0-0.8-0.1-1-0.4s-0.3-0.6-0.3-1V98h-0.8v-0.9h0.8V95.4z"/>
		<path d="M171,97.8c0.6,0.5,0.8,1.3,0.8,2.4c0,1-0.2,1.8-0.7,2.5c-0.5,0.7-1.2,1-2.3,1c-0.9,0-1.5-0.3-2-0.9
			c-0.5-0.6-0.8-1.4-0.8-2.4c0-1.1,0.3-1.9,0.8-2.5c0.5-0.6,1.2-0.9,2.1-0.9C169.8,96.9,170.4,97.2,171,97.8z M170.3,101.9
			c0.3-0.5,0.4-1.1,0.4-1.8c0-0.6-0.1-1.1-0.3-1.4c-0.3-0.6-0.8-0.9-1.5-0.9c-0.6,0-1.1,0.2-1.4,0.7c-0.3,0.5-0.4,1.1-0.4,1.8
			c0,0.7,0.1,1.2,0.4,1.7c0.3,0.4,0.7,0.7,1.4,0.7C169.6,102.7,170.1,102.5,170.3,101.9z"/>
		<path d="M173.4,97.1h1V98c0.3-0.4,0.6-0.6,0.9-0.8s0.7-0.2,1.1-0.2c0.9,0,1.5,0.3,1.8,0.9c0.2,0.3,0.3,0.8,0.3,1.5v4h-1.1v-4
			c0-0.4-0.1-0.7-0.2-0.9c-0.2-0.4-0.5-0.6-1-0.6c-0.2,0-0.5,0-0.6,0.1c-0.3,0.1-0.5,0.3-0.8,0.5c-0.2,0.2-0.3,0.4-0.3,0.6
			s-0.1,0.5-0.1,0.9v3.3h-1.1V97.1z"/>
		<path d="M184.3,97.3c0.4,0.2,0.7,0.5,0.9,0.8c0.2,0.3,0.3,0.7,0.4,1.1c0.1,0.3,0.1,0.8,0.1,1.4h-4.6c0,0.6,0.2,1.2,0.4,1.5
			c0.3,0.4,0.7,0.6,1.3,0.6c0.5,0,1-0.2,1.3-0.5c0.2-0.2,0.3-0.5,0.4-0.7h1c0,0.2-0.1,0.5-0.3,0.8s-0.3,0.5-0.5,0.7
			c-0.3,0.3-0.7,0.5-1.2,0.6c-0.3,0.1-0.5,0.1-0.9,0.1c-0.8,0-1.4-0.3-2-0.9c-0.5-0.6-0.8-1.4-0.8-2.4c0-1,0.3-1.8,0.8-2.5
			c0.5-0.6,1.3-0.9,2.1-0.9C183.4,97,183.9,97.1,184.3,97.3z M184.7,99.8c0-0.5-0.1-0.8-0.3-1.1c-0.3-0.5-0.8-0.8-1.4-0.8
			c-0.5,0-0.9,0.2-1.2,0.5s-0.5,0.8-0.5,1.3H184.7z"/>
	</g>
	<g>
		<path d="M50.3,164.7c0.6,0.6,0.9,1.2,1,2h-1.1c-0.1-0.6-0.4-1-0.8-1.3s-0.9-0.5-1.6-0.5c-0.8,0-1.5,0.3-2,0.9
			c-0.5,0.6-0.8,1.5-0.8,2.7c0,1,0.2,1.8,0.7,2.5c0.5,0.6,1.2,0.9,2.1,0.9c0.8,0,1.5-0.3,1.9-1c0.2-0.3,0.4-0.8,0.5-1.4h1.1
			c-0.1,0.9-0.4,1.7-1,2.3c-0.7,0.7-1.6,1.1-2.7,1.1c-1,0-1.8-0.3-2.5-0.9c-0.9-0.8-1.3-2-1.3-3.7c0-1.3,0.3-2.3,1-3.1
			c0.7-0.9,1.7-1.3,3-1.3C48.9,163.8,49.7,164.1,50.3,164.7z"/>
		<path d="M53.1,164.1h1.1v8.6h-1.1V164.1z"/>
		<path d="M59.4,168.9c0.2,0,0.4-0.1,0.5-0.3c0-0.1,0.1-0.2,0.1-0.4c0-0.4-0.1-0.6-0.4-0.8c-0.3-0.2-0.6-0.2-1.1-0.2
			c-0.5,0-0.9,0.1-1.2,0.4c-0.1,0.2-0.2,0.4-0.3,0.7h-1c0-0.8,0.3-1.3,0.8-1.6s1-0.5,1.7-0.5c0.7,0,1.3,0.1,1.8,0.4
			c0.5,0.3,0.7,0.7,0.7,1.3v3.6c0,0.1,0,0.2,0.1,0.3s0.1,0.1,0.3,0.1c0,0,0.1,0,0.2,0s0.1,0,0.2,0v0.8c-0.2,0-0.3,0.1-0.4,0.1
			s-0.2,0-0.4,0c-0.4,0-0.6-0.1-0.8-0.4c-0.1-0.1-0.1-0.3-0.2-0.6c-0.2,0.3-0.5,0.5-0.9,0.7s-0.8,0.3-1.3,0.3
			c-0.6,0-1.1-0.2-1.4-0.5c-0.4-0.4-0.6-0.8-0.6-1.3c0-0.6,0.2-1,0.5-1.4c0.4-0.3,0.8-0.5,1.4-0.6L59.4,168.9z M57.1,171.7
			c0.2,0.2,0.5,0.3,0.8,0.3c0.4,0,0.7-0.1,1.1-0.3c0.6-0.3,0.9-0.8,0.9-1.4v-0.8c-0.1,0.1-0.3,0.2-0.5,0.2s-0.4,0.1-0.6,0.1
			l-0.6,0.1c-0.4,0.1-0.7,0.1-0.9,0.2c-0.3,0.2-0.5,0.5-0.5,0.9C56.8,171.3,56.9,171.5,57.1,171.7z"/>
		<path d="M63.6,170.7c0,0.4,0.1,0.6,0.3,0.8c0.3,0.3,0.7,0.5,1.4,0.5c0.4,0,0.7-0.1,1.1-0.3s0.5-0.4,0.5-0.8c0-0.3-0.1-0.5-0.4-0.6
			c-0.2-0.1-0.5-0.2-0.9-0.3l-0.9-0.2c-0.5-0.1-0.9-0.3-1.2-0.4c-0.5-0.3-0.7-0.7-0.7-1.2c0-0.6,0.2-1.1,0.7-1.4
			c0.4-0.4,1-0.6,1.7-0.6c1,0,1.6,0.3,2.1,0.8c0.3,0.4,0.4,0.7,0.4,1.1h-1c0-0.2-0.1-0.5-0.3-0.6c-0.2-0.3-0.7-0.4-1.3-0.4
			c-0.4,0-0.7,0.1-0.9,0.2c-0.2,0.2-0.3,0.4-0.3,0.6c0,0.3,0.1,0.5,0.4,0.7c0.2,0.1,0.4,0.2,0.7,0.3l0.7,0.2
			c0.8,0.2,1.3,0.4,1.6,0.5c0.4,0.3,0.6,0.7,0.6,1.3c0,0.6-0.2,1-0.6,1.4c-0.4,0.4-1.1,0.6-2,0.6c-0.9,0-1.6-0.2-2-0.6
			s-0.6-0.9-0.6-1.6H63.6z"/>
		<path d="M69.9,170.7c0,0.4,0.1,0.6,0.3,0.8c0.3,0.3,0.7,0.5,1.4,0.5c0.4,0,0.7-0.1,1.1-0.3s0.5-0.4,0.5-0.8c0-0.3-0.1-0.5-0.4-0.6
			c-0.2-0.1-0.5-0.2-0.9-0.3l-0.9-0.2c-0.5-0.1-0.9-0.3-1.2-0.4c-0.5-0.3-0.7-0.7-0.7-1.2c0-0.6,0.2-1.1,0.7-1.4
			c0.4-0.4,1-0.6,1.7-0.6c1,0,1.6,0.3,2.1,0.8c0.3,0.4,0.4,0.7,0.4,1.1h-1c0-0.2-0.1-0.5-0.3-0.6c-0.2-0.3-0.7-0.4-1.3-0.4
			c-0.4,0-0.7,0.1-0.9,0.2c-0.2,0.2-0.3,0.4-0.3,0.6c0,0.3,0.1,0.5,0.4,0.7c0.2,0.1,0.4,0.2,0.7,0.3L72,169c0.8,0.2,1.3,0.4,1.6,0.5
			c0.4,0.3,0.6,0.7,0.6,1.3c0,0.6-0.2,1-0.6,1.4c-0.4,0.4-1.1,0.6-2,0.6c-0.9,0-1.6-0.2-2-0.6s-0.6-0.9-0.6-1.6H69.9z"/>
		<path d="M75.6,166.4h1v1.1c0.1-0.2,0.3-0.5,0.6-0.8s0.7-0.5,1.1-0.5c0,0,0.1,0,0.1,0s0.1,0,0.2,0v1.1c-0.1,0-0.1,0-0.2,0
			s-0.1,0-0.2,0c-0.5,0-0.9,0.2-1.2,0.5s-0.4,0.7-0.4,1.2v3.6h-1.1V166.4z"/>
		<path d="M84.4,167c0.6,0.5,0.8,1.3,0.8,2.4c0,1-0.2,1.8-0.7,2.5c-0.5,0.7-1.2,1-2.3,1c-0.9,0-1.5-0.3-2-0.9
			c-0.5-0.6-0.8-1.4-0.8-2.4c0-1.1,0.3-1.9,0.8-2.5c0.5-0.6,1.2-0.9,2.1-0.9C83.2,166.2,83.9,166.5,84.4,167z M83.8,171.2
			c0.3-0.5,0.4-1.1,0.4-1.8c0-0.6-0.1-1.1-0.3-1.4c-0.3-0.6-0.8-0.9-1.5-0.9c-0.6,0-1.1,0.2-1.4,0.7c-0.3,0.5-0.4,1.1-0.4,1.8
			c0,0.7,0.1,1.2,0.4,1.7c0.3,0.4,0.7,0.7,1.4,0.7C83,172,83.5,171.7,83.8,171.2z"/>
		<path d="M91.4,167c0.6,0.5,0.8,1.3,0.8,2.4c0,1-0.2,1.8-0.7,2.5c-0.5,0.7-1.2,1-2.3,1c-0.9,0-1.5-0.3-2-0.9
			c-0.5-0.6-0.8-1.4-0.8-2.4c0-1.1,0.3-1.9,0.8-2.5c0.5-0.6,1.2-0.9,2.1-0.9C90.2,166.2,90.8,166.5,91.4,167z M90.7,171.2
			c0.3-0.5,0.4-1.1,0.4-1.8c0-0.6-0.1-1.1-0.3-1.4c-0.3-0.6-0.8-0.9-1.5-0.9c-0.6,0-1.1,0.2-1.4,0.7c-0.3,0.5-0.4,1.1-0.4,1.8
			c0,0.7,0.1,1.2,0.4,1.7c0.3,0.4,0.7,0.7,1.4,0.7C90,172,90.5,171.7,90.7,171.2z"/>
		<path d="M93.8,166.4h1v0.9c0.2-0.3,0.5-0.5,0.7-0.7c0.3-0.2,0.7-0.4,1.2-0.4c0.5,0,0.9,0.1,1.2,0.4c0.2,0.1,0.3,0.3,0.5,0.6
			c0.2-0.3,0.5-0.6,0.8-0.7s0.7-0.2,1.1-0.2c0.8,0,1.4,0.3,1.7,0.9c0.2,0.3,0.2,0.8,0.2,1.3v4.2h-1.1v-4.4c0-0.4-0.1-0.7-0.3-0.9
			s-0.5-0.2-0.8-0.2c-0.4,0-0.8,0.1-1.1,0.4s-0.4,0.7-0.4,1.4v3.7h-1.1v-4.1c0-0.4-0.1-0.7-0.2-0.9c-0.2-0.3-0.5-0.4-0.9-0.4
			c-0.4,0-0.8,0.2-1.1,0.5s-0.5,0.9-0.5,1.7v3.3h-1.1V166.4z"/>
	</g>
	<g>
		<path d="M75.8,224.4H77v7.6h4.3v1h-5.5V224.4z"/>
		<path d="M82.6,224.4h1.1v1.2h-1.1V224.4z M82.6,226.8h1.1v6.2h-1.1V226.8z"/>
		<path d="M86.1,226.7l1.7,5.1l1.7-5.1h1.2l-2.4,6.3h-1.1l-2.3-6.3H86.1z"/>
		<path d="M91.9,224.4H93v1.2h-1.1V224.4z M91.9,226.8H93v6.2h-1.1V226.8z"/>
		<path d="M94.9,226.7h1v0.9c0.3-0.4,0.6-0.6,0.9-0.8s0.7-0.2,1.1-0.2c0.9,0,1.5,0.3,1.8,0.9c0.2,0.3,0.3,0.8,0.3,1.5v4h-1.1v-4
			c0-0.4-0.1-0.7-0.2-0.9c-0.2-0.4-0.5-0.6-1-0.6c-0.2,0-0.5,0-0.6,0.1c-0.3,0.1-0.5,0.3-0.8,0.5c-0.2,0.2-0.3,0.4-0.3,0.6
			s-0.1,0.5-0.1,0.9v3.3h-1.1V226.7z"/>
		<path d="M105.3,227c0.2,0.1,0.4,0.3,0.6,0.6v-0.8h1v5.7c0,0.8-0.1,1.4-0.4,1.9c-0.4,0.9-1.3,1.3-2.5,1.3c-0.7,0-1.2-0.2-1.7-0.5
			s-0.7-0.8-0.8-1.4h1.1c0.1,0.3,0.2,0.5,0.3,0.7c0.2,0.2,0.6,0.4,1.1,0.4c0.8,0,1.3-0.3,1.6-0.9c0.1-0.3,0.2-0.9,0.2-1.8
			c-0.2,0.3-0.5,0.6-0.8,0.7c-0.3,0.2-0.7,0.2-1.2,0.2c-0.7,0-1.3-0.2-1.8-0.7s-0.8-1.3-0.8-2.4c0-1.1,0.3-1.9,0.8-2.5
			s1.1-0.9,1.9-0.9C104.5,226.6,104.9,226.7,105.3,227z M105.4,228.1c-0.3-0.4-0.7-0.6-1.2-0.6c-0.7,0-1.2,0.3-1.5,1
			c-0.1,0.4-0.2,0.9-0.2,1.5c0,0.7,0.1,1.2,0.4,1.6c0.3,0.4,0.7,0.6,1.2,0.6c0.8,0,1.3-0.3,1.6-1c0.2-0.4,0.3-0.8,0.3-1.4
			C105.9,229.1,105.8,228.5,105.4,228.1z"/>
		<path d="M72.7,238.8h1.2v3.6h4.4v-3.6h1.2v8.6h-1.2v-4h-4.4v4h-1.2V238.8z"/>
		<path d="M81.5,238.8h1.1v1.2h-1.1V238.8z M81.5,241.2h1.1v6.2h-1.1V241.2z"/>
		<path d="M85.1,245.4c0,0.4,0.1,0.6,0.3,0.8c0.3,0.3,0.7,0.5,1.4,0.5c0.4,0,0.7-0.1,1.1-0.3s0.5-0.4,0.5-0.8c0-0.3-0.1-0.5-0.4-0.6
			c-0.2-0.1-0.5-0.2-0.9-0.3l-0.9-0.2c-0.5-0.1-0.9-0.3-1.2-0.4c-0.5-0.3-0.7-0.7-0.7-1.2c0-0.6,0.2-1.1,0.7-1.4
			c0.4-0.4,1-0.6,1.7-0.6c1,0,1.6,0.3,2.1,0.8c0.3,0.4,0.4,0.7,0.4,1.1h-1c0-0.2-0.1-0.5-0.3-0.6c-0.2-0.3-0.7-0.4-1.3-0.4
			c-0.4,0-0.7,0.1-0.9,0.2c-0.2,0.2-0.3,0.4-0.3,0.6c0,0.3,0.1,0.5,0.4,0.7c0.2,0.1,0.4,0.2,0.7,0.3l0.7,0.2
			c0.8,0.2,1.3,0.4,1.6,0.5c0.4,0.3,0.6,0.7,0.6,1.3c0,0.6-0.2,1-0.6,1.4c-0.4,0.4-1.1,0.6-2,0.6c-0.9,0-1.6-0.2-2-0.6
			s-0.6-0.9-0.6-1.6H85.1z"/>
		<path d="M90.9,239.4H92v1.8h1v0.9h-1v4.1c0,0.2,0.1,0.4,0.2,0.4c0.1,0,0.2,0.1,0.4,0.1c0.1,0,0.1,0,0.2,0s0.1,0,0.2,0v0.8
			c-0.1,0-0.2,0.1-0.4,0.1s-0.3,0-0.4,0c-0.5,0-0.8-0.1-1-0.4s-0.3-0.6-0.3-1V242h-0.8v-0.9h0.8V239.4z"/>
		<path d="M98.9,241.8c0.6,0.5,0.8,1.3,0.8,2.4c0,1-0.2,1.8-0.7,2.5c-0.5,0.7-1.2,1-2.3,1c-0.9,0-1.5-0.3-2-0.9
			c-0.5-0.6-0.8-1.4-0.8-2.4c0-1.1,0.3-1.9,0.8-2.5c0.5-0.6,1.2-0.9,2.1-0.9C97.7,240.9,98.4,241.2,98.9,241.8z M98.3,245.9
			c0.3-0.5,0.4-1.1,0.4-1.8c0-0.6-0.1-1.1-0.3-1.4c-0.3-0.6-0.8-0.9-1.5-0.9c-0.6,0-1.1,0.2-1.4,0.7c-0.3,0.5-0.4,1.1-0.4,1.8
			c0,0.7,0.1,1.2,0.4,1.7c0.3,0.4,0.7,0.7,1.4,0.7C97.5,246.7,98,246.5,98.3,245.9z"/>
		<path d="M101.4,241.1h1v1.1c0.1-0.2,0.3-0.5,0.6-0.8s0.7-0.5,1.1-0.5c0,0,0.1,0,0.1,0s0.1,0,0.2,0v1.1c-0.1,0-0.1,0-0.2,0
			s-0.1,0-0.2,0c-0.5,0-0.9,0.2-1.2,0.5s-0.4,0.7-0.4,1.2v3.6h-1.1V241.1z"/>
		<path d="M109.6,241.1h1.2c-0.1,0.4-0.5,1.3-1,2.8c-0.4,1.1-0.7,2-1,2.6c-0.6,1.6-1,2.6-1.3,2.9c-0.2,0.4-0.7,0.5-1.3,0.5
			c-0.1,0-0.3,0-0.3,0c-0.1,0-0.2,0-0.3-0.1v-1c0.2,0.1,0.3,0.1,0.4,0.1c0.1,0,0.2,0,0.2,0c0.2,0,0.3,0,0.4-0.1
			c0.1-0.1,0.2-0.1,0.2-0.2c0,0,0.1-0.2,0.2-0.5c0.1-0.3,0.2-0.5,0.3-0.6l-2.3-6.5h1.2l1.7,5.1L109.6,241.1z"/>
		<path d="M77.9,253.2h6v1.1H79v2.6h4.2v1H79v3.9h-1.2V253.2z"/>
		<path d="M88.6,258c0.2,0,0.4-0.1,0.5-0.3c0-0.1,0.1-0.2,0.1-0.4c0-0.4-0.1-0.6-0.4-0.8c-0.3-0.2-0.6-0.2-1.1-0.2
			c-0.5,0-0.9,0.1-1.2,0.4c-0.1,0.2-0.2,0.4-0.3,0.7h-1c0-0.8,0.3-1.3,0.8-1.6s1-0.5,1.7-0.5c0.7,0,1.3,0.1,1.8,0.4
			c0.5,0.3,0.7,0.7,0.7,1.3v3.6c0,0.1,0,0.2,0.1,0.3s0.1,0.1,0.3,0.1c0,0,0.1,0,0.2,0s0.1,0,0.2,0v0.8c-0.2,0-0.3,0.1-0.4,0.1
			s-0.2,0-0.4,0c-0.4,0-0.6-0.1-0.8-0.4c-0.1-0.1-0.1-0.3-0.2-0.6c-0.2,0.3-0.5,0.5-0.9,0.7s-0.8,0.3-1.3,0.3
			c-0.6,0-1.1-0.2-1.4-0.5c-0.4-0.4-0.6-0.8-0.6-1.3c0-0.6,0.2-1,0.5-1.4c0.4-0.3,0.8-0.5,1.4-0.6L88.6,258z M86.4,260.9
			c0.2,0.2,0.5,0.3,0.8,0.3c0.4,0,0.7-0.1,1.1-0.3c0.6-0.3,0.9-0.8,0.9-1.4v-0.8c-0.1,0.1-0.3,0.2-0.5,0.2s-0.4,0.1-0.6,0.1
			l-0.6,0.1c-0.4,0.1-0.7,0.1-0.9,0.2c-0.3,0.2-0.5,0.5-0.5,0.9C86.1,260.4,86.2,260.7,86.4,260.9z"/>
		<path d="M92.3,255.5h1v1.1c0.1-0.2,0.3-0.5,0.6-0.8s0.7-0.5,1.1-0.5c0,0,0.1,0,0.1,0s0.1,0,0.2,0v1.1c-0.1,0-0.1,0-0.2,0
			s-0.1,0-0.2,0c-0.5,0-0.9,0.2-1.2,0.5s-0.4,0.7-0.4,1.2v3.6h-1.1V255.5z"/>
		<path d="M96.5,255.5h1v0.9c0.2-0.3,0.5-0.5,0.7-0.7c0.3-0.2,0.7-0.4,1.2-0.4c0.5,0,0.9,0.1,1.2,0.4c0.2,0.1,0.3,0.3,0.5,0.6
			c0.2-0.3,0.5-0.6,0.8-0.7s0.7-0.2,1.1-0.2c0.8,0,1.4,0.3,1.7,0.9c0.2,0.3,0.2,0.8,0.2,1.3v4.2h-1.1v-4.4c0-0.4-0.1-0.7-0.3-0.9
			s-0.5-0.2-0.8-0.2c-0.4,0-0.8,0.1-1.1,0.4s-0.4,0.7-0.4,1.4v3.7h-1.1v-4.1c0-0.4-0.1-0.7-0.2-0.9c-0.2-0.3-0.5-0.4-0.9-0.4
			c-0.4,0-0.8,0.2-1.1,0.5s-0.5,0.9-0.5,1.7v3.3h-1.1V255.5z"/>
	</g>
	<g>
		<path d="M150.4,210.4h1.3l3.1,8.6h-1.3l-0.9-2.6h-3.4l-0.9,2.6h-1.2L150.4,210.4z M152.3,215.5l-1.3-3.8l-1.4,3.8H152.3z"/>
		<path d="M157.1,212.7v4.2c0,0.3,0,0.6,0.1,0.8c0.2,0.4,0.5,0.6,1,0.6c0.7,0,1.2-0.3,1.5-1c0.1-0.4,0.2-0.8,0.2-1.4v-3.1h1.1v6.3
			h-1l0-0.9c-0.1,0.2-0.3,0.4-0.5,0.6c-0.4,0.3-0.9,0.5-1.4,0.5c-0.9,0-1.5-0.3-1.8-0.9c-0.2-0.3-0.3-0.7-0.3-1.3v-4.3H157.1z"/>
		<path d="M166.5,212.9c0.2,0.1,0.4,0.3,0.6,0.6v-3.2h1v8.6h-0.9v-0.9c-0.2,0.4-0.5,0.7-0.9,0.8c-0.3,0.2-0.7,0.3-1.1,0.3
			c-0.7,0-1.3-0.3-1.8-0.9s-0.8-1.4-0.8-2.3c0-0.9,0.2-1.7,0.7-2.4c0.5-0.7,1.1-1,2-1C165.7,212.6,166.1,212.7,166.5,212.9z
			 M164.1,217.6c0.3,0.5,0.7,0.7,1.4,0.7c0.5,0,0.9-0.2,1.2-0.6s0.5-1,0.5-1.8c0-0.8-0.2-1.4-0.5-1.8s-0.7-0.6-1.2-0.6
			c-0.5,0-1,0.2-1.3,0.6c-0.3,0.4-0.5,1-0.5,1.8C163.7,216.6,163.8,217.2,164.1,217.6z"/>
		<path d="M170,210.4h1.1v1.2H170V210.4z M170,212.8h1.1v6.2H170V212.8z"/>
		<path d="M173.2,211h1.1v1.8h1v0.9h-1v4.1c0,0.2,0.1,0.4,0.2,0.4c0.1,0,0.2,0.1,0.4,0.1c0.1,0,0.1,0,0.2,0s0.1,0,0.2,0v0.8
			c-0.1,0-0.2,0.1-0.4,0.1s-0.3,0-0.4,0c-0.5,0-0.8-0.1-1-0.4s-0.3-0.6-0.3-1v-4.2h-0.8v-0.9h0.8V211z"/>
		<path d="M181.1,213.4c0.6,0.5,0.8,1.3,0.8,2.4c0,1-0.2,1.8-0.7,2.5c-0.5,0.7-1.2,1-2.3,1c-0.9,0-1.5-0.3-2-0.9
			c-0.5-0.6-0.8-1.4-0.8-2.4c0-1.1,0.3-1.9,0.8-2.5c0.5-0.6,1.2-0.9,2.1-0.9C179.9,212.5,180.6,212.8,181.1,213.4z M180.5,217.5
			c0.3-0.5,0.4-1.1,0.4-1.8c0-0.6-0.1-1.1-0.3-1.4c-0.3-0.6-0.8-0.9-1.5-0.9c-0.6,0-1.1,0.2-1.4,0.7c-0.3,0.5-0.4,1.1-0.4,1.8
			c0,0.7,0.1,1.2,0.4,1.7c0.3,0.4,0.7,0.7,1.4,0.7C179.8,218.3,180.2,218,180.5,217.5z"/>
		<path d="M183.6,212.7h1v1.1c0.1-0.2,0.3-0.5,0.6-0.8s0.7-0.5,1.1-0.5c0,0,0.1,0,0.1,0s0.1,0,0.2,0v1.1c-0.1,0-0.1,0-0.2,0
			s-0.1,0-0.2,0c-0.5,0-0.9,0.2-1.2,0.5s-0.4,0.7-0.4,1.2v3.6h-1.1V212.7z"/>
		<path d="M187.9,210.4h1.1v1.2h-1.1V210.4z M187.9,212.8h1.1v6.2h-1.1V212.8z"/>
		<path d="M191.9,212.7v4.2c0,0.3,0,0.6,0.1,0.8c0.2,0.4,0.5,0.6,1,0.6c0.7,0,1.2-0.3,1.5-1c0.1-0.4,0.2-0.8,0.2-1.4v-3.1h1.1v6.3
			h-1l0-0.9c-0.1,0.2-0.3,0.4-0.5,0.6c-0.4,0.3-0.9,0.5-1.4,0.5c-0.9,0-1.5-0.3-1.8-0.9c-0.2-0.3-0.3-0.7-0.3-1.3v-4.3H191.9z"/>
		<path d="M197.8,212.7h1v0.9c0.2-0.3,0.5-0.5,0.7-0.7c0.3-0.2,0.7-0.4,1.2-0.4c0.5,0,0.9,0.1,1.2,0.4c0.2,0.1,0.3,0.3,0.5,0.6
			c0.2-0.3,0.5-0.6,0.8-0.7s0.7-0.2,1.1-0.2c0.8,0,1.4,0.3,1.7,0.9c0.2,0.3,0.2,0.8,0.2,1.3v4.2h-1.1v-4.4c0-0.4-0.1-0.7-0.3-0.9
			s-0.5-0.2-0.8-0.2c-0.4,0-0.8,0.1-1.1,0.4s-0.4,0.7-0.4,1.4v3.7h-1.1v-4.1c0-0.4-0.1-0.7-0.2-0.9c-0.2-0.3-0.5-0.4-0.9-0.4
			c-0.4,0-0.8,0.2-1.1,0.5s-0.5,0.9-0.5,1.7v3.3h-1.1V212.7z"/>
	</g>
	<g>
		<path d="M29.8,290.4h3.7c1,0,1.7,0.3,2.2,0.9c0.3,0.4,0.4,0.8,0.4,1.2c0,0.5-0.2,1-0.5,1.3c-0.2,0.2-0.4,0.4-0.7,0.5
			c0.4,0.2,0.8,0.4,1,0.6c0.4,0.4,0.6,0.9,0.6,1.6c0,0.6-0.2,1.1-0.5,1.5c-0.5,0.7-1.4,1-2.5,1h-3.7V290.4z M33,294
			c0.5,0,0.9-0.1,1.2-0.2c0.4-0.2,0.7-0.6,0.7-1.2c0-0.6-0.2-0.9-0.7-1.1c-0.3-0.1-0.6-0.2-1.2-0.2h-2.1v2.7H33z M33.4,298
			c0.7,0,1.2-0.2,1.5-0.6c0.2-0.3,0.3-0.6,0.3-0.9c0-0.6-0.3-1.1-0.8-1.3c-0.3-0.1-0.7-0.2-1.2-0.2h-2.3v3H33.4z"/>
		<path d="M38,290.4H39v8.6H38V290.4z"/>
		<path d="M44.3,295.2c0.2,0,0.4-0.1,0.5-0.3c0-0.1,0.1-0.2,0.1-0.4c0-0.4-0.1-0.6-0.4-0.8c-0.3-0.2-0.6-0.2-1.1-0.2
			c-0.5,0-0.9,0.1-1.2,0.4c-0.1,0.2-0.2,0.4-0.3,0.7h-1c0-0.8,0.3-1.3,0.8-1.6s1-0.5,1.7-0.5c0.7,0,1.3,0.1,1.8,0.4
			c0.5,0.3,0.7,0.7,0.7,1.3v3.6c0,0.1,0,0.2,0.1,0.3s0.1,0.1,0.3,0.1c0,0,0.1,0,0.2,0s0.1,0,0.2,0v0.8c-0.2,0-0.3,0.1-0.4,0.1
			s-0.2,0-0.4,0c-0.4,0-0.6-0.1-0.8-0.4c-0.1-0.1-0.1-0.3-0.2-0.6c-0.2,0.3-0.5,0.5-0.9,0.7s-0.8,0.3-1.3,0.3
			c-0.6,0-1.1-0.2-1.4-0.5c-0.4-0.4-0.6-0.8-0.6-1.3c0-0.6,0.2-1,0.5-1.4c0.4-0.3,0.8-0.5,1.4-0.6L44.3,295.2z M42.1,298.1
			c0.2,0.2,0.5,0.3,0.8,0.3c0.4,0,0.7-0.1,1.1-0.3c0.6-0.3,0.9-0.8,0.9-1.4v-0.8c-0.1,0.1-0.3,0.2-0.5,0.2s-0.4,0.1-0.6,0.1
			l-0.6,0.1c-0.4,0.1-0.7,0.1-0.9,0.2c-0.3,0.2-0.5,0.5-0.5,0.9C41.7,297.6,41.8,297.9,42.1,298.1z"/>
		<path d="M52,293.1c0.4,0.3,0.7,0.9,0.8,1.8h-1c-0.1-0.4-0.2-0.7-0.4-1s-0.6-0.4-1.1-0.4c-0.7,0-1.2,0.3-1.4,1
			c-0.2,0.4-0.3,1-0.3,1.6c0,0.6,0.1,1.2,0.4,1.6c0.3,0.4,0.7,0.6,1.3,0.6c0.4,0,0.8-0.1,1-0.4s0.4-0.6,0.5-1.1h1
			c-0.1,0.8-0.4,1.4-0.9,1.8s-1.1,0.6-1.8,0.6c-0.8,0-1.5-0.3-2-0.9s-0.7-1.3-0.7-2.2c0-1.1,0.3-2,0.8-2.6s1.2-0.9,2-0.9
			C51,292.5,51.6,292.7,52,293.1z"/>
		<path d="M54.2,290.4h1v5l2.7-2.7h1.3l-2.4,2.3l2.5,3.9H58l-2-3.2l-0.9,0.8v2.4h-1V290.4z"/>
		<path d="M61.1,297c0,0.4,0.1,0.6,0.3,0.8c0.3,0.3,0.7,0.5,1.4,0.5c0.4,0,0.7-0.1,1.1-0.3s0.5-0.4,0.5-0.8c0-0.3-0.1-0.5-0.4-0.6
			c-0.2-0.1-0.5-0.2-0.9-0.3l-0.9-0.2c-0.5-0.1-0.9-0.3-1.2-0.4c-0.5-0.3-0.7-0.7-0.7-1.2c0-0.6,0.2-1.1,0.7-1.4
			c0.4-0.4,1-0.6,1.7-0.6c1,0,1.6,0.3,2.1,0.8c0.3,0.4,0.4,0.7,0.4,1.1h-1c0-0.2-0.1-0.5-0.3-0.6c-0.2-0.3-0.7-0.4-1.3-0.4
			c-0.4,0-0.7,0.1-0.9,0.2c-0.2,0.2-0.3,0.4-0.3,0.6c0,0.3,0.1,0.5,0.4,0.7c0.2,0.1,0.4,0.2,0.7,0.3l0.7,0.2
			c0.8,0.2,1.3,0.4,1.6,0.5c0.4,0.3,0.6,0.7,0.6,1.3c0,0.6-0.2,1-0.6,1.4c-0.4,0.4-1.1,0.6-2,0.6c-0.9,0-1.6-0.2-2-0.6
			s-0.6-0.9-0.6-1.6H61.1z"/>
		<path d="M66.8,292.7h1v0.9c0.2-0.3,0.5-0.5,0.7-0.7c0.3-0.2,0.7-0.4,1.2-0.4c0.5,0,0.9,0.1,1.2,0.4c0.2,0.1,0.3,0.3,0.5,0.6
			c0.2-0.3,0.5-0.6,0.8-0.7s0.7-0.2,1.1-0.2c0.8,0,1.4,0.3,1.7,0.9c0.2,0.3,0.2,0.8,0.2,1.3v4.2h-1.1v-4.4c0-0.4-0.1-0.7-0.3-0.9
			s-0.5-0.2-0.8-0.2c-0.4,0-0.8,0.1-1.1,0.4s-0.4,0.7-0.4,1.4v3.7h-1.1v-4.1c0-0.4-0.1-0.7-0.2-0.9c-0.2-0.3-0.5-0.4-0.9-0.4
			c-0.4,0-0.8,0.2-1.1,0.5s-0.5,0.9-0.5,1.7v3.3h-1.1V292.7z"/>
		<path d="M77.1,290.4h1.1v1.2h-1.1V290.4z M77.1,292.8h1.1v6.2h-1.1V292.8z"/>
		<path d="M80.3,291h1.1v1.8h1v0.9h-1v4.1c0,0.2,0.1,0.4,0.2,0.4c0.1,0,0.2,0.1,0.4,0.1c0.1,0,0.1,0,0.2,0s0.1,0,0.2,0v0.8
			c-0.1,0-0.2,0.1-0.4,0.1s-0.3,0-0.4,0c-0.5,0-0.8-0.1-1-0.4s-0.3-0.6-0.3-1v-4.2h-0.8v-0.9h0.8V291z"/>
		<path d="M83.7,290.4h1.1v3.2c0.2-0.3,0.5-0.5,0.7-0.7c0.3-0.2,0.8-0.3,1.3-0.3c0.9,0,1.5,0.3,1.9,1c0.2,0.3,0.3,0.8,0.3,1.4v4
			h-1.1v-4c0-0.5-0.1-0.8-0.2-1c-0.2-0.3-0.6-0.5-1.1-0.5c-0.4,0-0.8,0.2-1.2,0.5s-0.5,0.9-0.5,1.7v3.3h-1.1V290.4z"/>
	</g>
	<g>
		<path d="M396.2,229.4h1.2v3.6h4.4v-3.6h1.2v8.6h-1.2v-4h-4.4v4h-1.2V229.4z"/>
		<path d="M408.4,234.2c0.2,0,0.4-0.1,0.5-0.3c0-0.1,0.1-0.2,0.1-0.4c0-0.4-0.1-0.6-0.4-0.8c-0.3-0.2-0.6-0.2-1.1-0.2
			c-0.5,0-0.9,0.1-1.2,0.4c-0.1,0.2-0.2,0.4-0.3,0.7h-1c0-0.8,0.3-1.3,0.8-1.6s1-0.5,1.7-0.5c0.7,0,1.3,0.1,1.8,0.4
			c0.5,0.3,0.7,0.7,0.7,1.3v3.6c0,0.1,0,0.2,0.1,0.3s0.1,0.1,0.3,0.1c0,0,0.1,0,0.2,0s0.1,0,0.2,0v0.8c-0.2,0-0.3,0.1-0.4,0.1
			s-0.2,0-0.4,0c-0.4,0-0.6-0.1-0.8-0.4c-0.1-0.1-0.1-0.3-0.2-0.6c-0.2,0.3-0.5,0.5-0.9,0.7s-0.8,0.3-1.3,0.3
			c-0.6,0-1.1-0.2-1.4-0.5c-0.4-0.4-0.6-0.8-0.6-1.3c0-0.6,0.2-1,0.5-1.4c0.4-0.3,0.8-0.5,1.4-0.6L408.4,234.2z M406.2,237.1
			c0.2,0.2,0.5,0.3,0.8,0.3c0.4,0,0.7-0.1,1.1-0.3c0.6-0.3,0.9-0.8,0.9-1.4v-0.8c-0.1,0.1-0.3,0.2-0.5,0.2s-0.4,0.1-0.6,0.1
			l-0.6,0.1c-0.4,0.1-0.7,0.1-0.9,0.2c-0.3,0.2-0.5,0.5-0.5,0.9C405.8,236.6,405.9,236.9,406.2,237.1z"/>
		<path d="M412,229.4h1.1v8.6H412V229.4z"/>
		<path d="M415,229.4h1.1v8.6H415V229.4z"/>
		<path d="M426.1,232.4c0.6,0.5,0.8,1.3,0.8,2.4c0,1-0.2,1.8-0.7,2.5c-0.5,0.7-1.2,1-2.3,1c-0.9,0-1.5-0.3-2-0.9
			c-0.5-0.6-0.8-1.4-0.8-2.4c0-1.1,0.3-1.9,0.8-2.5c0.5-0.6,1.2-0.9,2.1-0.9C424.9,231.5,425.5,231.8,426.1,232.4z M425.4,236.5
			c0.3-0.5,0.4-1.1,0.4-1.8c0-0.6-0.1-1.1-0.3-1.4c-0.3-0.6-0.8-0.9-1.5-0.9c-0.6,0-1.1,0.2-1.4,0.7c-0.3,0.5-0.4,1.1-0.4,1.8
			c0,0.7,0.1,1.2,0.4,1.7c0.3,0.4,0.7,0.7,1.4,0.7C424.7,237.3,425.2,237,425.4,236.5z"/>
		<path d="M429,229.8c0.2-0.4,0.7-0.5,1.4-0.5c0.1,0,0.1,0,0.2,0s0.2,0,0.2,0v1c-0.1,0-0.2,0-0.2,0c0,0-0.1,0-0.1,0
			c-0.3,0-0.5,0.1-0.6,0.2s-0.1,0.6-0.1,1.3h1.1v0.8h-1.1v5.4h-1v-5.4h-0.9v-0.8h0.9v-1C428.8,230.3,428.9,230,429,229.8z"/>
		<path d="M395.6,244c0.8,0.4,1.4,1.2,1.5,2.4H396c-0.1-0.6-0.4-1.1-0.9-1.4s-1-0.4-1.6-0.4c-0.8,0-1.4,0.3-2,0.9s-0.8,1.5-0.8,2.7
			c0,1,0.2,1.9,0.7,2.5c0.4,0.6,1.2,1,2.2,1c0.8,0,1.4-0.2,1.9-0.7s0.8-1.2,0.8-2.2h-2.7v-1h3.8v4.6h-0.8l-0.3-1.1
			c-0.4,0.4-0.7,0.7-1,0.9c-0.5,0.3-1.1,0.4-1.9,0.4c-1,0-1.9-0.3-2.6-1c-0.8-0.8-1.2-2-1.2-3.4c0-1.4,0.4-2.6,1.2-3.4
			c0.7-0.8,1.7-1.2,2.8-1.2C394.3,243.6,395,243.7,395.6,244z"/>
		<path d="M399.4,246.1h1v1.1c0.1-0.2,0.3-0.5,0.6-0.8s0.7-0.5,1.1-0.5c0,0,0.1,0,0.1,0s0.1,0,0.2,0v1.1c-0.1,0-0.1,0-0.2,0
			s-0.1,0-0.2,0c-0.5,0-0.9,0.2-1.2,0.5s-0.4,0.7-0.4,1.2v3.6h-1.1V246.1z"/>
		<path d="M408.2,246.8c0.6,0.5,0.8,1.3,0.8,2.4c0,1-0.2,1.8-0.7,2.5c-0.5,0.7-1.2,1-2.3,1c-0.9,0-1.5-0.3-2-0.9
			c-0.5-0.6-0.8-1.4-0.8-2.4c0-1.1,0.3-1.9,0.8-2.5c0.5-0.6,1.2-0.9,2.1-0.9C407,245.9,407.6,246.2,408.2,246.8z M407.5,250.9
			c0.3-0.5,0.4-1.1,0.4-1.8c0-0.6-0.1-1.1-0.3-1.4c-0.3-0.6-0.8-0.9-1.5-0.9c-0.6,0-1.1,0.2-1.4,0.7c-0.3,0.5-0.4,1.1-0.4,1.8
			c0,0.7,0.1,1.2,0.4,1.7c0.3,0.4,0.7,0.7,1.4,0.7C406.8,251.7,407.3,251.5,407.5,250.9z"/>
		<path d="M411.1,246.1l1.2,4.9l1.2-4.9h1.2l1.2,4.9l1.3-4.9h1.1l-1.8,6.3h-1.1l-1.3-4.9l-1.2,4.9h-1.1l-1.8-6.3H411.1z"/>
		<path d="M419.8,244.4h1.1v1.8h1v0.9h-1v4.1c0,0.2,0.1,0.4,0.2,0.4c0.1,0,0.2,0.1,0.4,0.1c0.1,0,0.1,0,0.2,0s0.1,0,0.2,0v0.8
			c-0.1,0-0.2,0.1-0.4,0.1s-0.3,0-0.4,0c-0.5,0-0.8-0.1-1-0.4s-0.3-0.6-0.3-1V247h-0.8v-0.9h0.8V244.4z"/>
		<path d="M423.2,243.8h1.1v3.2c0.2-0.3,0.5-0.5,0.7-0.7c0.3-0.2,0.8-0.3,1.3-0.3c0.9,0,1.5,0.3,1.9,1c0.2,0.3,0.3,0.8,0.3,1.4v4
			h-1.1v-4c0-0.5-0.1-0.8-0.2-1c-0.2-0.3-0.6-0.5-1.1-0.5c-0.4,0-0.8,0.2-1.2,0.5s-0.5,0.9-0.5,1.7v3.3h-1.1V243.8z"/>
		<path d="M434.8,246.6c-0.1-0.3-0.2-0.6-0.2-0.8c0-0.6,0.2-1,0.6-1.4c0.4-0.4,0.9-0.5,1.5-0.5c0.6,0,1.1,0.2,1.4,0.5
			s0.5,0.7,0.5,1.2c0,0.6-0.2,1-0.5,1.4c-0.2,0.2-0.5,0.5-1,0.8l1.6,1.9c0.1-0.3,0.2-0.5,0.2-0.7s0.1-0.4,0.1-0.6h1
			c-0.1,0.6-0.2,1.1-0.4,1.6s-0.3,0.7-0.3,0.6l1.5,1.9h-1.4l-0.8-1c-0.3,0.3-0.6,0.6-0.9,0.8c-0.5,0.3-1,0.4-1.6,0.4
			c-0.9,0-1.5-0.2-1.9-0.7c-0.4-0.5-0.6-1-0.6-1.6c0-0.7,0.2-1.2,0.6-1.6c0.2-0.3,0.7-0.6,1.3-1
			C435.2,247.2,434.9,246.8,434.8,246.6z M437.3,251.4c0.3-0.2,0.6-0.4,0.7-0.7l-1.9-2.4c-0.5,0.4-0.9,0.6-1.1,0.8
			c-0.3,0.3-0.4,0.7-0.4,1.1c0,0.5,0.2,0.8,0.5,1.1s0.7,0.4,1.1,0.4C436.6,251.7,437,251.6,437.3,251.4z M437.2,246.5
			c0.2-0.3,0.3-0.6,0.3-0.9c0-0.3-0.1-0.5-0.3-0.7c-0.2-0.2-0.4-0.3-0.7-0.3c-0.4,0-0.7,0.1-0.9,0.4c-0.1,0.1-0.1,0.3-0.1,0.5
			c0,0.2,0.1,0.5,0.2,0.7c0.1,0.2,0.3,0.5,0.7,0.8C436.8,246.9,437.1,246.7,437.2,246.5z"/>
		<path d="M391.2,258.2h3.7c1,0,1.7,0.3,2.2,0.9c0.3,0.4,0.4,0.8,0.4,1.2c0,0.5-0.2,1-0.5,1.3c-0.2,0.2-0.4,0.4-0.7,0.5
			c0.4,0.2,0.8,0.4,1,0.6c0.4,0.4,0.6,0.9,0.6,1.6c0,0.6-0.2,1.1-0.5,1.5c-0.5,0.7-1.4,1-2.5,1h-3.7V258.2z M394.4,261.8
			c0.5,0,0.9-0.1,1.2-0.2c0.4-0.2,0.7-0.6,0.7-1.2c0-0.6-0.2-0.9-0.7-1.1c-0.3-0.1-0.6-0.2-1.2-0.2h-2.1v2.7H394.4z M394.8,265.8
			c0.7,0,1.2-0.2,1.5-0.6c0.2-0.3,0.3-0.6,0.3-0.9c0-0.6-0.3-1.1-0.8-1.3c-0.3-0.1-0.7-0.2-1.2-0.2h-2.3v3H394.8z"/>
		<path d="M403.2,260.7c0.4,0.2,0.7,0.5,0.9,0.8c0.2,0.3,0.3,0.7,0.4,1.1c0.1,0.3,0.1,0.8,0.1,1.4h-4.6c0,0.6,0.2,1.2,0.4,1.5
			c0.3,0.4,0.7,0.6,1.3,0.6c0.5,0,1-0.2,1.3-0.5c0.2-0.2,0.3-0.5,0.4-0.7h1c0,0.2-0.1,0.5-0.3,0.8s-0.3,0.5-0.5,0.7
			c-0.3,0.3-0.7,0.5-1.2,0.6c-0.3,0.1-0.5,0.1-0.9,0.1c-0.8,0-1.4-0.3-2-0.9c-0.5-0.6-0.8-1.4-0.8-2.4c0-1,0.3-1.8,0.8-2.5
			c0.5-0.6,1.3-0.9,2.1-0.9C402.4,260.4,402.8,260.5,403.2,260.7z M403.6,263.2c0-0.5-0.1-0.8-0.3-1.1c-0.3-0.5-0.8-0.8-1.4-0.8
			c-0.5,0-0.9,0.2-1.2,0.5s-0.5,0.8-0.5,1.3H403.6z"/>
		<path d="M406.3,258.2h1.1v3.2c0.2-0.3,0.5-0.5,0.7-0.7c0.3-0.2,0.8-0.3,1.3-0.3c0.9,0,1.5,0.3,1.9,1c0.2,0.3,0.3,0.8,0.3,1.4v4
			h-1.1v-4c0-0.5-0.1-0.8-0.2-1c-0.2-0.3-0.6-0.5-1.1-0.5c-0.4,0-0.8,0.2-1.2,0.5s-0.5,0.9-0.5,1.7v3.3h-1.1V258.2z"/>
		<path d="M416.7,263c0.2,0,0.4-0.1,0.5-0.3c0-0.1,0.1-0.2,0.1-0.4c0-0.4-0.1-0.6-0.4-0.8c-0.3-0.2-0.6-0.2-1.1-0.2
			c-0.5,0-0.9,0.1-1.2,0.4c-0.1,0.2-0.2,0.4-0.3,0.7h-1c0-0.8,0.3-1.3,0.8-1.6s1-0.5,1.7-0.5c0.7,0,1.3,0.1,1.8,0.4
			c0.5,0.3,0.7,0.7,0.7,1.3v3.6c0,0.1,0,0.2,0.1,0.3s0.1,0.1,0.3,0.1c0,0,0.1,0,0.2,0s0.1,0,0.2,0v0.8c-0.2,0-0.3,0.1-0.4,0.1
			s-0.2,0-0.4,0c-0.4,0-0.6-0.1-0.8-0.4c-0.1-0.1-0.1-0.3-0.2-0.6c-0.2,0.3-0.5,0.5-0.9,0.7s-0.8,0.3-1.3,0.3
			c-0.6,0-1.1-0.2-1.4-0.5c-0.4-0.4-0.6-0.8-0.6-1.3c0-0.6,0.2-1,0.5-1.4c0.4-0.3,0.8-0.5,1.4-0.6L416.7,263z M414.4,265.9
			c0.2,0.2,0.5,0.3,0.8,0.3c0.4,0,0.7-0.1,1.1-0.3c0.6-0.3,0.9-0.8,0.9-1.4v-0.8c-0.1,0.1-0.3,0.2-0.5,0.2s-0.4,0.1-0.6,0.1
			l-0.6,0.1c-0.4,0.1-0.7,0.1-0.9,0.2c-0.3,0.2-0.5,0.5-0.5,0.9C414.1,265.4,414.2,265.7,414.4,265.9z"/>
		<path d="M420.8,260.5l1.7,5.1l1.7-5.1h1.2l-2.4,6.3h-1.1l-2.3-6.3H420.8z"/>
		<path d="M426.6,258.2h1.1v1.2h-1.1V258.2z M426.6,260.6h1.1v6.2h-1.1V260.6z"/>
		<path d="M434.1,261.2c0.6,0.5,0.8,1.3,0.8,2.4c0,1-0.2,1.8-0.7,2.5c-0.5,0.7-1.2,1-2.3,1c-0.9,0-1.5-0.3-2-0.9
			c-0.5-0.6-0.8-1.4-0.8-2.4c0-1.1,0.3-1.9,0.8-2.5c0.5-0.6,1.2-0.9,2.1-0.9C432.8,260.3,433.5,260.6,434.1,261.2z M433.4,265.3
			c0.3-0.5,0.4-1.1,0.4-1.8c0-0.6-0.1-1.1-0.3-1.4c-0.3-0.6-0.8-0.9-1.5-0.9c-0.6,0-1.1,0.2-1.4,0.7c-0.3,0.5-0.4,1.1-0.4,1.8
			c0,0.7,0.1,1.2,0.4,1.7c0.3,0.4,0.7,0.7,1.4,0.7C432.7,266.1,433.2,265.8,433.4,265.3z"/>
		<path d="M436.5,260.5h1v1.1c0.1-0.2,0.3-0.5,0.6-0.8s0.7-0.5,1.1-0.5c0,0,0.1,0,0.1,0s0.1,0,0.2,0v1.1c-0.1,0-0.1,0-0.2,0
			s-0.1,0-0.2,0c-0.5,0-0.9,0.2-1.2,0.5s-0.4,0.7-0.4,1.2v3.6h-1.1V260.5z"/>
	</g>
	<g>
		<path class="st6" d="M20.4,352.3h6.1l9.1,31.9l9-31.9h6.1v37.8h-4.1v-22.3c0-0.8,0-2,0-3.8c0-1.8,0-3.7,0-5.7l-9,31.9h-4.2
			l-9.1-31.9v1.2c0,0.9,0,2.3,0.1,4.2c0,1.9,0.1,3.3,0.1,4.2v22.3h-4.1V352.3z"/>
		<path class="st6" d="M60.4,362.5v18.3c0,1.4,0.2,2.6,0.5,3.4c0.7,1.6,1.9,2.5,3.7,2.5c2.6,0,4.4-1.4,5.3-4.3
			c0.5-1.5,0.8-3.7,0.8-6.4v-13.5h3.9v27.5h-3.6l0-4.1c-0.5,1-1.1,1.9-1.8,2.6c-1.4,1.4-3.2,2.2-5.3,2.2c-3.2,0-5.4-1.3-6.6-3.9
			c-0.6-1.4-0.9-3.3-0.9-5.6v-18.7H60.4z"/>
		<path class="st6" d="M83.3,381.4c0.1,1.5,0.4,2.7,1,3.5c1,1.5,2.7,2.2,5.2,2.2c1.5,0,2.7-0.4,3.8-1.1c1.1-0.7,1.7-1.9,1.7-3.5
			c0-1.2-0.4-2.1-1.3-2.7c-0.6-0.4-1.7-0.8-3.4-1.3l-3.1-0.9c-2-0.6-3.5-1.2-4.4-2c-1.7-1.3-2.5-3-2.5-5.2c0-2.6,0.8-4.7,2.4-6.3
			c1.6-1.6,3.7-2.4,6.4-2.4c3.5,0,6,1.2,7.6,3.7c1,1.5,1.4,3.2,1.4,5h-3.6c-0.1-1-0.4-2-0.9-2.8c-0.9-1.2-2.5-1.8-4.7-1.8
			c-1.5,0-2.6,0.3-3.4,1s-1.2,1.5-1.2,2.6c0,1.2,0.5,2.2,1.5,2.9c0.6,0.4,1.4,0.8,2.6,1.1l2.6,0.7c2.8,0.8,4.7,1.6,5.7,2.3
			c1.5,1.2,2.2,3,2.2,5.6c0,2.5-0.8,4.6-2.4,6.4c-1.6,1.8-4,2.7-7.2,2.7c-3.5,0-5.9-0.9-7.3-2.8s-2.2-4.2-2.3-6.9H83.3z"/>
		<path class="st6" d="M117.1,363.3c1.5,0.9,2.7,2.1,3.5,3.6c0.8,1.4,1.3,3,1.5,4.9c0.2,1.3,0.3,3.3,0.3,6.1h-16.7
			c0.1,2.8,0.6,5,1.6,6.7c1,1.7,2.6,2.5,4.7,2.5c2,0,3.6-0.8,4.8-2.4c0.7-0.9,1.1-2,1.4-3.2h3.8c-0.1,1-0.4,2.1-1,3.4
			c-0.6,1.2-1.2,2.3-1.9,3c-1.2,1.4-2.6,2.3-4.3,2.8c-0.9,0.3-2,0.4-3.1,0.4c-2.8,0-5.2-1.2-7.2-3.7c-2-2.5-3-6-3-10.5
			c0-4.4,1-8,3-10.8s4.6-4.1,7.8-4.1C114,361.9,115.6,362.4,117.1,363.3z M118.5,374.1c-0.2-2-0.5-3.6-1.1-4.8
			c-1-2.2-2.8-3.3-5.2-3.3c-1.8,0-3.2,0.8-4.4,2.3c-1.2,1.5-1.8,3.5-1.9,5.8H118.5z"/>
		<path class="st6" d="M131.2,362.5v18.3c0,1.4,0.2,2.6,0.5,3.4c0.7,1.6,1.9,2.5,3.7,2.5c2.6,0,4.4-1.4,5.3-4.3
			c0.5-1.5,0.8-3.7,0.8-6.4v-13.5h3.9v27.5h-3.6l0-4.1c-0.5,1-1.1,1.9-1.8,2.6c-1.4,1.4-3.2,2.2-5.3,2.2c-3.2,0-5.4-1.3-6.6-3.9
			c-0.6-1.4-0.9-3.3-0.9-5.6v-18.7H131.2z"/>
		<path class="st6" d="M151.7,362.5h3.8v3.9c0.9-1.4,1.7-2.3,2.5-3c1.3-1,2.7-1.6,4.3-1.6c1.8,0,3.3,0.5,4.4,1.6
			c0.6,0.6,1.2,1.5,1.7,2.7c0.9-1.5,1.9-2.6,3-3.3c1.2-0.7,2.5-1.1,3.9-1.1c3.1,0,5.2,1.3,6.3,4c0.6,1.4,0.9,3.4,0.9,5.8v18.3h-4
			v-19.1c0-1.8-0.4-3.1-1.1-3.8s-1.7-1-2.8-1c-1.5,0-2.8,0.6-3.9,1.8c-1.1,1.2-1.6,3.2-1.6,6.1v16h-3.9v-18c0-1.9-0.2-3.2-0.6-4.1
			c-0.6-1.3-1.7-1.9-3.3-1.9c-1.5,0-2.8,0.7-4,2c-1.2,1.4-1.8,3.8-1.8,7.4v14.6h-3.9V362.5z"/>
		<path class="st6" d="M217.1,365.3c2,2.4,3,5.8,3,10.4c0,4.4-0.9,8.1-2.7,11s-4.6,4.3-8.3,4.3c-3.1,0-5.6-1.3-7.5-3.8
			c-1.8-2.6-2.8-6-2.8-10.3c0-4.6,1-8.3,2.9-11c1.9-2.7,4.6-4.1,7.8-4.1C212.6,361.7,215.1,362.9,217.1,365.3z M214.7,383.6
			c0.9-2.3,1.4-4.9,1.4-7.7c0-2.6-0.3-4.7-1-6.3c-1.1-2.5-2.9-3.8-5.6-3.8c-2.3,0-4,1.1-5.1,3.2s-1.6,4.8-1.6,7.8
			c0,2.9,0.5,5.4,1.6,7.3c1.1,2,2.7,2.9,5,2.9C212,387.1,213.8,385.9,214.7,383.6z"/>
		<path class="st6" d="M226.7,354.1c0.9-1.6,2.6-2.4,5.2-2.4c0.2,0,0.5,0,0.8,0c0.3,0,0.5,0,0.9,0.1v4.2c-0.4,0-0.7-0.1-0.9-0.1
			s-0.4,0-0.5,0c-1.2,0-1.9,0.4-2.1,1.1s-0.3,2.6-0.3,5.6h3.9v3.7h-3.9v23.8h-3.8v-23.8h-3.2v-3.7h3.2v-4.3
			C225.9,356.4,226.2,355,226.7,354.1z"/>
		<path class="st6" d="M250,354.8h3.9v7.7h3.7v3.8h-3.7v18c0,1,0.3,1.6,0.8,1.9c0.3,0.2,0.8,0.3,1.5,0.3c0.2,0,0.4,0,0.6,0
			c0.2,0,0.5,0,0.8-0.1v3.7c-0.4,0.2-0.9,0.3-1.4,0.3c-0.5,0.1-1,0.1-1.6,0.1c-1.8,0-3-0.6-3.7-1.7c-0.6-1.1-1-2.5-1-4.3v-18.2h-3.1
			v-3.8h3.1V354.8z"/>
		<path class="st6" d="M261.5,352.2h3.9v14.1c0.9-1.4,1.7-2.4,2.5-2.9c1.2-1,2.8-1.5,4.6-1.5c3.3,0,5.6,1.4,6.8,4.2
			c0.6,1.5,1,3.6,1,6.4v17.7h-4v-17.4c0-2-0.2-3.5-0.6-4.4c-0.7-1.5-2-2.3-3.9-2.3c-1.6,0-3,0.7-4.3,2s-1.9,3.8-1.9,7.5v14.6h-3.9
			V352.2z"/>
		<path class="st6" d="M300,363.3c1.5,0.9,2.7,2.1,3.5,3.6c0.8,1.4,1.3,3,1.5,4.9c0.2,1.3,0.3,3.3,0.3,6.1h-16.7
			c0.1,2.8,0.6,5,1.6,6.7c1,1.7,2.6,2.5,4.7,2.5c2,0,3.6-0.8,4.8-2.4c0.7-0.9,1.1-2,1.4-3.2h3.8c-0.1,1-0.4,2.1-1,3.4
			c-0.6,1.2-1.2,2.3-1.9,3c-1.2,1.4-2.6,2.3-4.3,2.8c-0.9,0.3-2,0.4-3.1,0.4c-2.8,0-5.2-1.2-7.2-3.7c-2-2.5-3-6-3-10.5
			c0-4.4,1-8,3-10.8s4.6-4.1,7.8-4.1C297,361.9,298.5,362.4,300,363.3z M301.4,374.1c-0.2-2-0.5-3.6-1.1-4.8c-1-2.2-2.8-3.3-5.2-3.3
			c-1.8,0-3.2,0.8-4.4,2.3c-1.2,1.5-1.8,3.5-1.9,5.8H301.4z"/>
		<path class="st6" d="M323.5,352.3h14.3c2.4,0,4.3,0.4,5.8,1.3c2.9,1.6,4.4,4.6,4.4,8.9c0,2.3-0.4,4.1-1.2,5.6
			c-0.8,1.4-1.9,2.6-3.3,3.5c1.2,0.6,2.2,1.4,2.8,2.4c0.6,1,1,2.6,1,4.8l0.1,5.1c0,1.4,0.1,2.5,0.3,3.2c0.3,1.2,0.7,2,1.4,2.3v0.8
			H344c-0.1-0.3-0.3-0.7-0.3-1.3c-0.1-0.5-0.2-1.5-0.2-3l-0.3-6.3c-0.1-2.5-0.8-4.1-2.2-5c-0.8-0.5-2-0.7-3.7-0.7h-9.4v16.2h-4.3
			V352.3z M337.3,369.6c1.9,0,3.5-0.5,4.6-1.4s1.7-2.7,1.7-5.2c0-2.7-0.8-4.5-2.4-5.5c-0.8-0.5-2-0.8-3.4-0.8h-10.1v12.9H337.3z"/>
		<path class="st6" d="M370.8,365.3c2,2.4,3,5.8,3,10.4c0,4.4-0.9,8.1-2.7,11s-4.6,4.3-8.3,4.3c-3.1,0-5.6-1.3-7.5-3.8
			c-1.8-2.6-2.8-6-2.8-10.3c0-4.6,1-8.3,2.9-11c1.9-2.7,4.6-4.1,7.8-4.1C366.3,361.7,368.8,362.9,370.8,365.3z M368.4,383.6
			c0.9-2.3,1.4-4.9,1.4-7.7c0-2.6-0.3-4.7-1-6.3c-1.1-2.5-2.9-3.8-5.6-3.8c-2.3,0-4,1.1-5.1,3.2s-1.6,4.8-1.6,7.8
			c0,2.9,0.5,5.4,1.6,7.3c1.1,2,2.7,2.9,5,2.9C365.7,387.1,367.4,385.9,368.4,383.6z"/>
		<path class="st6" d="M393.7,364c1.6,1.5,2.6,4.1,2.9,7.8h-3.7c-0.2-1.7-0.8-3.1-1.6-4.2c-0.8-1.1-2.1-1.7-3.9-1.7
			c-2.5,0-4.2,1.4-5.3,4.3c-0.7,1.9-1,4.2-1,6.9c0,2.8,0.5,5.1,1.5,7c1,1.9,2.5,2.8,4.6,2.8c1.6,0,2.9-0.6,3.8-1.8s1.6-2.8,1.9-4.8
			h3.7c-0.4,3.7-1.5,6.3-3.2,8c-1.7,1.7-3.9,2.5-6.6,2.5c-3,0-5.4-1.3-7.2-3.9S377,381,377,377c0-4.8,1-8.6,2.9-11.3
			c2-2.7,4.4-4,7.5-4C390,361.7,392.1,362.5,393.7,364z"/>
		<path class="st6" d="M400.4,352.3h3.7v21.9l9.9-11.7h4.9l-8.8,10.2l9.3,17.3h-4.9l-7.2-14l-3.2,3.7v10.3h-3.7V352.3z"/>
		<path class="st6" d="M422.4,352.3h3.9v5.2h-3.9V352.3z M422.4,362.7h3.9v27.4h-3.9V362.7z"/>
		<path class="st6" d="M446.4,363.3c1.5,0.9,2.7,2.1,3.5,3.6c0.8,1.4,1.3,3,1.5,4.9c0.2,1.3,0.3,3.3,0.3,6.1H435
			c0.1,2.8,0.6,5,1.6,6.7c1,1.7,2.6,2.5,4.7,2.5c2,0,3.6-0.8,4.8-2.4c0.7-0.9,1.1-2,1.4-3.2h3.8c-0.1,1-0.4,2.1-1,3.4
			c-0.6,1.2-1.2,2.3-1.9,3c-1.2,1.4-2.6,2.3-4.3,2.8c-0.9,0.3-2,0.4-3.1,0.4c-2.8,0-5.2-1.2-7.2-3.7c-2-2.5-3-6-3-10.5
			c0-4.4,1-8,3-10.8s4.6-4.1,7.8-4.1C443.3,361.9,444.8,362.4,446.4,363.3z M447.7,374.1c-0.2-2-0.5-3.6-1.1-4.8
			c-1-2.2-2.8-3.3-5.2-3.3c-1.8,0-3.2,0.8-4.4,2.3c-1.2,1.5-1.8,3.5-1.9,5.8H447.7z"/>
		<path class="st6" d="M458.9,381.4c0.1,1.5,0.4,2.7,1,3.5c1,1.5,2.7,2.2,5.2,2.2c1.5,0,2.7-0.4,3.8-1.1c1.1-0.7,1.7-1.9,1.7-3.5
			c0-1.2-0.4-2.1-1.3-2.7c-0.6-0.4-1.7-0.8-3.4-1.3l-3.1-0.9c-2-0.6-3.5-1.2-4.4-2c-1.7-1.3-2.5-3-2.5-5.2c0-2.6,0.8-4.7,2.4-6.3
			s3.7-2.4,6.4-2.4c3.5,0,6,1.2,7.6,3.7c1,1.5,1.4,3.2,1.4,5h-3.6c-0.1-1-0.4-2-0.9-2.8c-0.9-1.2-2.5-1.8-4.7-1.8
			c-1.5,0-2.6,0.3-3.4,1s-1.2,1.5-1.2,2.6c0,1.2,0.5,2.2,1.5,2.9c0.6,0.4,1.4,0.8,2.6,1.1l2.6,0.7c2.8,0.8,4.7,1.6,5.7,2.3
			c1.5,1.2,2.2,3,2.2,5.6c0,2.5-0.8,4.6-2.4,6.4c-1.6,1.8-4,2.7-7.2,2.7c-3.5,0-5.9-0.9-7.3-2.8c-1.4-1.9-2.2-4.2-2.3-6.9H458.9z"/>
	</g>
	<g>
		<path d="M57.4,119.7h3.7c1,0,1.7,0.3,2.2,0.9c0.3,0.4,0.4,0.8,0.4,1.2c0,0.5-0.2,1-0.5,1.3c-0.2,0.2-0.4,0.4-0.7,0.5
			c0.4,0.2,0.8,0.4,1,0.6c0.4,0.4,0.6,0.9,0.6,1.6c0,0.6-0.2,1.1-0.5,1.5c-0.5,0.7-1.4,1-2.5,1h-3.7V119.7z M60.7,123.4
			c0.5,0,0.9-0.1,1.2-0.2c0.4-0.2,0.7-0.6,0.7-1.2c0-0.6-0.2-0.9-0.7-1.1c-0.3-0.1-0.6-0.2-1.2-0.2h-2.1v2.7H60.7z M61.1,127.3
			c0.7,0,1.2-0.2,1.5-0.6c0.2-0.3,0.3-0.6,0.3-0.9c0-0.6-0.3-1.1-0.8-1.3c-0.3-0.1-0.7-0.2-1.2-0.2h-2.3v3H61.1z"/>
		<path d="M70.2,122.7c0.6,0.5,0.8,1.3,0.8,2.4c0,1-0.2,1.8-0.7,2.5c-0.5,0.7-1.2,1-2.3,1c-0.9,0-1.5-0.3-2-0.9
			c-0.5-0.6-0.8-1.4-0.8-2.4c0-1.1,0.3-1.9,0.8-2.5c0.5-0.6,1.2-0.9,2.1-0.9C68.9,121.9,69.6,122.1,70.2,122.7z M69.5,126.9
			c0.3-0.5,0.4-1.1,0.4-1.8c0-0.6-0.1-1.1-0.3-1.4c-0.3-0.6-0.8-0.9-1.5-0.9c-0.6,0-1.1,0.2-1.4,0.7c-0.3,0.5-0.4,1.1-0.4,1.8
			c0,0.7,0.1,1.2,0.4,1.7c0.3,0.4,0.7,0.7,1.4,0.7C68.8,127.6,69.3,127.4,69.5,126.9z"/>
		<path d="M76,124.5c0.2,0,0.4-0.1,0.5-0.3c0-0.1,0.1-0.2,0.1-0.4c0-0.4-0.1-0.6-0.4-0.8c-0.3-0.2-0.6-0.2-1.1-0.2
			c-0.5,0-0.9,0.1-1.2,0.4c-0.1,0.2-0.2,0.4-0.3,0.7h-1c0-0.8,0.3-1.3,0.8-1.6s1-0.5,1.7-0.5c0.7,0,1.3,0.1,1.8,0.4
			c0.5,0.3,0.7,0.7,0.7,1.3v3.6c0,0.1,0,0.2,0.1,0.3s0.1,0.1,0.3,0.1c0,0,0.1,0,0.2,0s0.1,0,0.2,0v0.8c-0.2,0-0.3,0.1-0.4,0.1
			s-0.2,0-0.4,0c-0.4,0-0.6-0.1-0.8-0.4c-0.1-0.1-0.1-0.3-0.2-0.6c-0.2,0.3-0.5,0.5-0.9,0.7s-0.8,0.3-1.3,0.3
			c-0.6,0-1.1-0.2-1.4-0.5c-0.4-0.4-0.6-0.8-0.6-1.3c0-0.6,0.2-1,0.5-1.4c0.4-0.3,0.8-0.5,1.4-0.6L76,124.5z M73.7,127.4
			c0.2,0.2,0.5,0.3,0.8,0.3c0.4,0,0.7-0.1,1.1-0.3c0.6-0.3,0.9-0.8,0.9-1.4v-0.8c-0.1,0.1-0.3,0.2-0.5,0.2s-0.4,0.1-0.6,0.1
			l-0.6,0.1c-0.4,0.1-0.7,0.1-0.9,0.2c-0.3,0.2-0.5,0.5-0.5,0.9C73.4,127,73.5,127.2,73.7,127.4z"/>
		<path d="M79.6,122.1h1v1.1c0.1-0.2,0.3-0.5,0.6-0.8s0.7-0.5,1.1-0.5c0,0,0.1,0,0.1,0s0.1,0,0.2,0v1.1c-0.1,0-0.1,0-0.2,0
			s-0.1,0-0.2,0c-0.5,0-0.9,0.2-1.2,0.5s-0.4,0.7-0.4,1.2v3.6h-1.1V122.1z"/>
		<path d="M87.3,122.3c0.2,0.1,0.4,0.3,0.6,0.6v-3.2h1v8.6H88v-0.9c-0.2,0.4-0.5,0.7-0.9,0.8c-0.3,0.2-0.7,0.3-1.1,0.3
			c-0.7,0-1.3-0.3-1.8-0.9s-0.8-1.4-0.8-2.3c0-0.9,0.2-1.7,0.7-2.4c0.5-0.7,1.1-1,2-1C86.6,121.9,87,122,87.3,122.3z M85,127
			c0.3,0.5,0.7,0.7,1.4,0.7c0.5,0,0.9-0.2,1.2-0.6s0.5-1,0.5-1.8c0-0.8-0.2-1.4-0.5-1.8s-0.7-0.6-1.2-0.6c-0.5,0-1,0.2-1.3,0.6
			c-0.3,0.4-0.5,1-0.5,1.8C84.5,125.9,84.7,126.5,85,127z"/>
		<path d="M57.8,134.1h3.9c0.6,0,1.2,0.1,1.6,0.3c0.8,0.4,1.2,1,1.2,2c0,0.5-0.1,0.9-0.3,1.3s-0.5,0.6-0.9,0.8
			c0.3,0.1,0.6,0.3,0.8,0.5s0.3,0.6,0.3,1.1l0,1.2c0,0.3,0,0.6,0.1,0.7c0.1,0.3,0.2,0.4,0.4,0.5v0.2h-1.4c0-0.1-0.1-0.2-0.1-0.3
			s0-0.3-0.1-0.7l-0.1-1.4c0-0.6-0.2-0.9-0.6-1.1c-0.2-0.1-0.6-0.2-1-0.2h-2.6v3.7h-1.2V134.1z M61.6,138.1c0.5,0,1-0.1,1.3-0.3
			s0.5-0.6,0.5-1.2c0-0.6-0.2-1-0.6-1.3c-0.2-0.1-0.5-0.2-0.9-0.2h-2.8v2.9H61.6z"/>
		<path d="M71,137.1c0.6,0.5,0.8,1.3,0.8,2.4c0,1-0.2,1.8-0.7,2.5c-0.5,0.7-1.2,1-2.3,1c-0.9,0-1.5-0.3-2-0.9
			c-0.5-0.6-0.8-1.4-0.8-2.4c0-1.1,0.3-1.9,0.8-2.5c0.5-0.6,1.2-0.9,2.1-0.9C69.8,136.3,70.4,136.5,71,137.1z M70.3,141.3
			c0.3-0.5,0.4-1.1,0.4-1.8c0-0.6-0.1-1.1-0.3-1.4c-0.3-0.6-0.8-0.9-1.5-0.9c-0.6,0-1.1,0.2-1.4,0.7c-0.3,0.5-0.4,1.1-0.4,1.8
			c0,0.7,0.1,1.2,0.4,1.7c0.3,0.4,0.7,0.7,1.4,0.7C69.6,142,70.1,141.8,70.3,141.3z"/>
		<path d="M78,137.1c0.6,0.5,0.8,1.3,0.8,2.4c0,1-0.2,1.8-0.7,2.5c-0.5,0.7-1.2,1-2.3,1c-0.9,0-1.5-0.3-2-0.9
			c-0.5-0.6-0.8-1.4-0.8-2.4c0-1.1,0.3-1.9,0.8-2.5c0.5-0.6,1.2-0.9,2.1-0.9C76.7,136.3,77.4,136.5,78,137.1z M77.3,141.3
			c0.3-0.5,0.4-1.1,0.4-1.8c0-0.6-0.1-1.1-0.3-1.4c-0.3-0.6-0.8-0.9-1.5-0.9c-0.6,0-1.1,0.2-1.4,0.7c-0.3,0.5-0.4,1.1-0.4,1.8
			c0,0.7,0.1,1.2,0.4,1.7c0.3,0.4,0.7,0.7,1.4,0.7C76.6,142,77.1,141.8,77.3,141.3z"/>
		<path d="M80.4,136.5h1v0.9c0.2-0.3,0.5-0.5,0.7-0.7c0.3-0.2,0.7-0.4,1.2-0.4c0.5,0,0.9,0.1,1.2,0.4c0.2,0.1,0.3,0.3,0.5,0.6
			c0.2-0.3,0.5-0.6,0.8-0.7s0.7-0.2,1.1-0.2c0.8,0,1.4,0.3,1.7,0.9c0.2,0.3,0.2,0.8,0.2,1.3v4.2h-1.1v-4.4c0-0.4-0.1-0.7-0.3-0.9
			s-0.5-0.2-0.8-0.2c-0.4,0-0.8,0.1-1.1,0.4s-0.4,0.7-0.4,1.4v3.7h-1.1v-4.1c0-0.4-0.1-0.7-0.2-0.9c-0.2-0.3-0.5-0.4-0.9-0.4
			c-0.4,0-0.8,0.2-1.1,0.5s-0.5,0.9-0.5,1.7v3.3h-1.1V136.5z"/>
	</g>
	<g>
		<g>
			<path class="st7" d="M355.2,142.5v-5.7h1.1v4.7h2.6v-4.3h1v4.3h2.9v-4.8h1v5.8H355.2z"/>
			<path class="st7" d="M357.5,135.2v-0.9h0.9c-0.4-0.3-0.6-0.6-0.8-0.9c-0.2-0.3-0.2-0.6-0.2-1c0-0.8,0.3-1.4,0.9-1.7
				c0.3-0.2,0.8-0.2,1.5-0.2h4.1v1h-4c-0.4,0-0.7,0.1-0.9,0.2c-0.4,0.2-0.6,0.5-0.6,0.9c0,0.2,0,0.4,0.1,0.6
				c0.1,0.3,0.3,0.5,0.5,0.7c0.2,0.2,0.4,0.3,0.6,0.3c0.2,0,0.5,0.1,1,0.1h3.3v1H357.5z"/>
			<path class="st7" d="M357.7,125.6c0.1-0.2,0.3-0.4,0.6-0.6h-3.2v-0.9h8.7v0.9H363c0.4,0.2,0.7,0.5,0.8,0.8
				c0.2,0.3,0.3,0.7,0.3,1.1c0,0.6-0.3,1.2-0.9,1.7c-0.6,0.5-1.4,0.7-2.4,0.7c-0.9,0-1.7-0.2-2.4-0.6c-0.7-0.4-1-1-1-1.8
				C357.4,126.3,357.5,125.9,357.7,125.6z M362.5,127.8c0.5-0.3,0.7-0.7,0.7-1.3c0-0.4-0.2-0.8-0.6-1.1c-0.4-0.3-1-0.4-1.8-0.4
				c-0.8,0-1.4,0.1-1.8,0.4c-0.4,0.3-0.6,0.7-0.6,1.1c0,0.5,0.2,0.9,0.6,1.2c0.4,0.3,1,0.5,1.8,0.5C361.5,128.2,362,128,362.5,127.8
				z"/>
			<path class="st7" d="M357.5,121.4h4.2c0.3,0,0.6,0,0.8-0.1c0.4-0.2,0.6-0.5,0.6-0.9c0-0.7-0.3-1.1-1-1.3
				c-0.4-0.1-0.8-0.2-1.5-0.2h-3.1v-1h6.3v0.9l-0.9,0c0.2,0.1,0.4,0.3,0.6,0.5c0.3,0.4,0.5,0.8,0.5,1.3c0,0.8-0.3,1.4-0.9,1.6
				c-0.3,0.2-0.8,0.2-1.3,0.2h-4.3V121.4z"/>
			<path class="st7" d="M357.5,116V115h1.1c-0.2-0.1-0.5-0.3-0.8-0.6c-0.3-0.3-0.5-0.6-0.5-1c0,0,0,0,0-0.1s0-0.1,0-0.2h1.1
				c0,0.1,0,0.1,0,0.2c0,0,0,0.1,0,0.2c0,0.5,0.2,0.9,0.5,1.1c0.3,0.3,0.7,0.4,1.2,0.4h3.6v1H357.5z"/>
			<path class="st7" d="M355.2,112v-1h1.2v1H355.2z M357.6,112v-1h6.3v1H357.6z"/>
			<path class="st7" d="M357.5,109.3v-0.9h0.9c-0.4-0.3-0.6-0.6-0.8-0.9c-0.2-0.3-0.2-0.6-0.2-1c0-0.8,0.3-1.4,0.9-1.7
				c0.3-0.2,0.8-0.2,1.5-0.2h4.1v1h-4c-0.4,0-0.7,0.1-0.9,0.2c-0.4,0.2-0.6,0.5-0.6,0.9c0,0.2,0,0.4,0.1,0.6
				c0.1,0.3,0.3,0.5,0.5,0.7c0.2,0.2,0.4,0.3,0.6,0.3c0.2,0,0.5,0.1,1,0.1h3.3v1H357.5z"/>
			<path class="st7" d="M357.8,99.7c0.1-0.2,0.3-0.4,0.6-0.6h-0.8v-0.9h5.8c0.8,0,1.4,0.1,1.9,0.3c0.9,0.4,1.3,1.2,1.3,2.3
				c0,0.6-0.2,1.1-0.5,1.6c-0.3,0.4-0.8,0.7-1.4,0.7v-1c0.3,0,0.5-0.1,0.7-0.3c0.2-0.2,0.4-0.6,0.4-1c0-0.7-0.3-1.2-0.9-1.4
				c-0.3-0.1-0.9-0.2-1.8-0.2c0.3,0.2,0.6,0.4,0.7,0.7c0.2,0.3,0.2,0.6,0.2,1.1c0,0.6-0.2,1.2-0.7,1.6c-0.5,0.5-1.3,0.7-2.4,0.7
				c-1.1,0-1.9-0.2-2.5-0.7c-0.6-0.5-0.9-1-0.9-1.7C357.4,100.5,357.6,100.1,357.8,99.7z M358.9,99.6c-0.4,0.3-0.6,0.7-0.6,1.1
				c0,0.7,0.4,1.1,1.1,1.4c0.4,0.1,0.9,0.2,1.5,0.2c0.7,0,1.3-0.1,1.6-0.4c0.4-0.3,0.6-0.6,0.6-1.1c0-0.7-0.3-1.2-1-1.5
				c-0.4-0.2-0.8-0.2-1.4-0.2C359.9,99.2,359.3,99.3,358.9,99.6z"/>
			<path class="st7" d="M355.2,93v-3.5c0-0.7,0.2-1.3,0.7-1.7s1-0.6,1.8-0.6c0.7,0,1.3,0.2,1.8,0.6c0.5,0.4,0.8,1,0.8,1.8v2.5h3.7
				V93H355.2z M356.4,88.8c-0.1,0.2-0.2,0.6-0.2,1v2.1h3v-2.1c0-0.5-0.1-0.9-0.3-1.2s-0.6-0.4-1.2-0.4
				C357.1,88.2,356.6,88.4,356.4,88.8z"/>
			<path class="st7" d="M357.7,82c0.2-0.4,0.5-0.7,0.8-0.9c0.3-0.2,0.7-0.3,1.1-0.4c0.3-0.1,0.8-0.1,1.4-0.1v4.2
				c0.6,0,1.2-0.2,1.5-0.4c0.4-0.3,0.6-0.7,0.6-1.2c0-0.5-0.2-0.9-0.6-1.2c-0.2-0.2-0.5-0.3-0.7-0.4v-1c0.2,0,0.5,0.1,0.8,0.2
				c0.3,0.1,0.5,0.3,0.7,0.5c0.3,0.3,0.5,0.7,0.6,1.1c0.1,0.2,0.1,0.5,0.1,0.8c0,0.7-0.3,1.3-0.9,1.8c-0.6,0.5-1.4,0.7-2.4,0.7
				c-1,0-1.8-0.2-2.5-0.7c-0.6-0.5-1-1.1-1-2C357.4,82.8,357.5,82.4,357.7,82z M360.2,81.7c-0.5,0-0.8,0.1-1.1,0.3
				c-0.5,0.3-0.8,0.7-0.8,1.3c0,0.4,0.2,0.8,0.5,1.1c0.4,0.3,0.8,0.5,1.3,0.5V81.7z"/>
			<path class="st7" d="M358.2,75c0.5-0.5,1.3-0.8,2.4-0.8c1,0,1.9,0.2,2.5,0.7c0.7,0.4,1,1.1,1,2.1c0,0.8-0.3,1.4-0.9,1.9
				c-0.6,0.5-1.4,0.7-2.4,0.7c-1.1,0-1.9-0.2-2.5-0.7c-0.6-0.5-0.9-1.1-0.9-2C357.4,76.2,357.6,75.5,358.2,75z M362.4,75.6
				c-0.5-0.2-1.1-0.4-1.8-0.4c-0.6,0-1.1,0.1-1.4,0.3c-0.6,0.3-0.9,0.7-0.9,1.4c0,0.6,0.2,1,0.7,1.3c0.5,0.3,1.1,0.4,1.8,0.4
				c0.7,0,1.2-0.1,1.7-0.4c0.4-0.3,0.7-0.7,0.7-1.3C363.2,76.3,362.9,75.9,362.4,75.6z"/>
			<path class="st7" d="M357.6,72.9v-0.9h0.8c-0.3-0.2-0.5-0.4-0.7-0.6c-0.2-0.3-0.4-0.7-0.4-1.2c0-0.7,0.3-1.2,0.8-1.7
				s1.3-0.7,2.4-0.7c1.4,0,2.4,0.3,3,1c0.4,0.4,0.6,0.9,0.6,1.5c0,0.4-0.1,0.8-0.3,1.1c-0.1,0.2-0.3,0.4-0.6,0.6h3.2v1H357.6z
				 M362.5,69.3c-0.4-0.3-1-0.5-1.9-0.5c-0.5,0-0.9,0.1-1.3,0.2c-0.7,0.3-1,0.7-1,1.4c0,0.7,0.4,1.1,1.1,1.4
				c0.4,0.1,0.9,0.2,1.5,0.2c0.5,0,0.9-0.1,1.2-0.2c0.7-0.3,1-0.7,1-1.4C363.2,69.9,363,69.6,362.5,69.3z"/>
			<path class="st7" d="M355.2,66.4v-1h8.7v1H355.2z"/>
			<path class="st7" d="M357.7,60.1c0.2-0.4,0.5-0.7,0.8-0.9c0.3-0.2,0.7-0.3,1.1-0.4c0.3-0.1,0.8-0.1,1.4-0.1V63
				c0.6,0,1.2-0.2,1.5-0.4c0.4-0.3,0.6-0.7,0.6-1.2c0-0.5-0.2-0.9-0.6-1.2c-0.2-0.2-0.5-0.3-0.7-0.4v-1c0.2,0,0.5,0.1,0.8,0.2
				c0.3,0.1,0.5,0.3,0.7,0.5c0.3,0.3,0.5,0.7,0.6,1.1c0.1,0.2,0.1,0.5,0.1,0.8c0,0.7-0.3,1.3-0.9,1.8c-0.6,0.5-1.4,0.7-2.4,0.7
				c-1,0-1.8-0.2-2.5-0.7c-0.6-0.5-1-1.1-1-2C357.4,60.9,357.5,60.5,357.7,60.1z M360.2,59.8c-0.5,0-0.8,0.1-1.1,0.3
				c-0.5,0.3-0.8,0.7-0.8,1.3c0,0.4,0.2,0.8,0.5,1.1s0.8,0.5,1.3,0.5V59.8z"/>
			<path class="st7" d="M361.9,56.7c0.4,0,0.6-0.1,0.8-0.2c0.3-0.2,0.5-0.7,0.5-1.3c0-0.4-0.1-0.7-0.3-1c-0.2-0.3-0.4-0.4-0.8-0.4
				c-0.3,0-0.5,0.1-0.6,0.3c-0.1,0.1-0.2,0.4-0.3,0.8l-0.2,0.8c-0.1,0.5-0.3,0.9-0.4,1.1c-0.3,0.4-0.7,0.6-1.2,0.6
				c-0.6,0-1.1-0.2-1.5-0.6c-0.4-0.4-0.6-0.9-0.6-1.6c0-0.9,0.3-1.5,0.8-1.9c0.4-0.2,0.7-0.4,1.1-0.4V54c-0.2,0-0.5,0.1-0.7,0.2
				c-0.3,0.2-0.4,0.6-0.4,1.2c0,0.4,0.1,0.7,0.2,0.8c0.2,0.2,0.4,0.3,0.6,0.3c0.3,0,0.5-0.1,0.7-0.4c0.1-0.1,0.2-0.4,0.3-0.6
				l0.2-0.7c0.2-0.7,0.4-1.2,0.5-1.4c0.3-0.4,0.7-0.6,1.3-0.6c0.6,0,1,0.2,1.5,0.6c0.4,0.4,0.6,1,0.6,1.8c0,0.9-0.2,1.5-0.6,1.8
				c-0.4,0.4-1,0.6-1.6,0.6V56.7z"/>
		</g>
	</g>
	<g>
		<path class="st7" d="M213,54.4h3.4c0.9,0,1.6,0.3,2,0.8c0.2,0.3,0.3,0.7,0.3,1.1c0,0.5-0.1,0.9-0.4,1.2c-0.1,0.2-0.4,0.3-0.6,0.5
			c0.4,0.2,0.7,0.3,0.9,0.5c0.4,0.3,0.5,0.8,0.5,1.4c0,0.5-0.2,1-0.5,1.4c-0.5,0.6-1.2,0.9-2.3,0.9H213V54.4z M216,57.8
			c0.5,0,0.8-0.1,1.1-0.2c0.4-0.2,0.6-0.6,0.6-1.1c0-0.5-0.2-0.9-0.6-1c-0.2-0.1-0.6-0.2-1.1-0.2h-1.9v2.4H216z M216.4,61.4
			c0.7,0,1.1-0.2,1.4-0.6c0.2-0.2,0.3-0.5,0.3-0.9c0-0.6-0.3-1-0.8-1.2c-0.3-0.1-0.6-0.2-1.1-0.2h-2.1v2.8H216.4z"/>
		<path class="st7" d="M223.6,58.9c0.2,0,0.4-0.1,0.4-0.3c0-0.1,0.1-0.2,0.1-0.4c0-0.3-0.1-0.6-0.4-0.7c-0.2-0.1-0.6-0.2-1-0.2
			c-0.5,0-0.9,0.1-1.1,0.4c-0.1,0.2-0.2,0.4-0.2,0.7h-0.9c0-0.7,0.2-1.2,0.7-1.5c0.4-0.3,1-0.4,1.5-0.4c0.7,0,1.2,0.1,1.6,0.4
			c0.4,0.3,0.6,0.7,0.6,1.2v3.3c0,0.1,0,0.2,0.1,0.2c0,0.1,0.1,0.1,0.3,0.1c0,0,0.1,0,0.1,0c0.1,0,0.1,0,0.2,0v0.7
			c-0.2,0-0.3,0.1-0.3,0.1s-0.2,0-0.3,0c-0.3,0-0.6-0.1-0.7-0.4c-0.1-0.1-0.1-0.3-0.2-0.5c-0.2,0.3-0.5,0.5-0.8,0.7
			c-0.4,0.2-0.8,0.3-1.2,0.3c-0.5,0-1-0.2-1.3-0.5c-0.3-0.3-0.5-0.7-0.5-1.2c0-0.5,0.2-0.9,0.5-1.2s0.8-0.5,1.3-0.5L223.6,58.9z
			 M221.6,61.5c0.2,0.2,0.4,0.2,0.7,0.2c0.3,0,0.7-0.1,1-0.2c0.5-0.3,0.8-0.7,0.8-1.3v-0.8c-0.1,0.1-0.3,0.1-0.5,0.2
			c-0.2,0.1-0.4,0.1-0.5,0.1l-0.6,0.1c-0.4,0-0.6,0.1-0.8,0.2c-0.3,0.2-0.4,0.4-0.4,0.8C221.3,61.1,221.4,61.3,221.6,61.5z"/>
		<path class="st7" d="M230.7,56.9c0.4,0.3,0.7,0.9,0.7,1.6h-0.9c-0.1-0.4-0.2-0.6-0.4-0.9s-0.5-0.4-1-0.4c-0.6,0-1.1,0.3-1.3,0.9
			c-0.2,0.4-0.3,0.9-0.3,1.4c0,0.6,0.1,1.1,0.4,1.5s0.6,0.6,1.1,0.6c0.4,0,0.7-0.1,1-0.4c0.2-0.2,0.4-0.6,0.5-1h0.9
			c-0.1,0.8-0.4,1.3-0.8,1.7s-1,0.5-1.6,0.5c-0.8,0-1.4-0.3-1.8-0.8s-0.7-1.2-0.7-2.1c0-1,0.2-1.8,0.7-2.4c0.5-0.6,1.1-0.8,1.9-0.8
			C229.8,56.4,230.3,56.6,230.7,56.9z"/>
		<path class="st7" d="M232.7,54.4h0.9V59l2.5-2.4h1.2l-2.2,2.1l2.3,3.6h-1.2l-1.8-2.9l-0.8,0.8v2.2h-0.9V54.4z"/>
		<path class="st7" d="M212.7,67.9c0.8,0.4,1.2,1.1,1.4,2.2h-1.1c-0.1-0.6-0.4-1-0.8-1.3c-0.4-0.3-0.9-0.4-1.5-0.4
			c-0.7,0-1.3,0.3-1.8,0.8c-0.5,0.5-0.7,1.4-0.7,2.4c0,0.9,0.2,1.7,0.6,2.3c0.4,0.6,1.1,0.9,2,0.9c0.7,0,1.3-0.2,1.7-0.6
			c0.5-0.4,0.7-1.1,0.7-2h-2.5v-0.9h3.5v4.2h-0.7l-0.3-1c-0.4,0.4-0.7,0.7-0.9,0.8c-0.5,0.3-1,0.4-1.8,0.4c-0.9,0-1.7-0.3-2.4-0.9
			c-0.7-0.8-1.1-1.8-1.1-3.1c0-1.3,0.4-2.4,1.1-3.2c0.7-0.7,1.5-1.1,2.6-1.1C211.5,67.4,212.2,67.6,212.7,67.9z"/>
		<path class="st7" d="M219.2,72.1c0.2,0,0.4-0.1,0.4-0.3c0-0.1,0.1-0.2,0.1-0.4c0-0.3-0.1-0.6-0.4-0.7c-0.2-0.1-0.6-0.2-1-0.2
			c-0.5,0-0.9,0.1-1.1,0.4c-0.1,0.2-0.2,0.4-0.2,0.7h-0.9c0-0.7,0.2-1.2,0.7-1.5c0.4-0.3,1-0.4,1.5-0.4c0.7,0,1.2,0.1,1.6,0.4
			c0.4,0.3,0.6,0.7,0.6,1.2v3.3c0,0.1,0,0.2,0.1,0.2c0,0.1,0.1,0.1,0.3,0.1c0,0,0.1,0,0.1,0c0.1,0,0.1,0,0.2,0v0.7
			c-0.2,0-0.3,0.1-0.3,0.1s-0.2,0-0.3,0c-0.3,0-0.6-0.1-0.7-0.4c-0.1-0.1-0.1-0.3-0.2-0.5c-0.2,0.3-0.5,0.5-0.8,0.7
			c-0.4,0.2-0.8,0.3-1.2,0.3c-0.5,0-1-0.2-1.3-0.5c-0.3-0.3-0.5-0.7-0.5-1.2c0-0.5,0.2-0.9,0.5-1.2s0.8-0.5,1.3-0.5L219.2,72.1z
			 M217.2,74.7c0.2,0.2,0.4,0.2,0.7,0.2c0.3,0,0.7-0.1,1-0.2c0.5-0.3,0.8-0.7,0.8-1.3v-0.8c-0.1,0.1-0.3,0.1-0.5,0.2
			c-0.2,0.1-0.4,0.1-0.5,0.1l-0.6,0.1c-0.4,0-0.6,0.1-0.8,0.2c-0.3,0.2-0.4,0.4-0.4,0.8C216.9,74.3,217,74.5,217.2,74.7z"/>
		<path class="st7" d="M222.6,67.6h1v7.9h-1V67.6z"/>
		<path class="st7" d="M225.3,67.6h1v7.9h-1V67.6z"/>
		<path class="st7" d="M231.5,69.9c0.4,0.2,0.7,0.4,0.9,0.7c0.2,0.3,0.3,0.6,0.4,1c0.1,0.3,0.1,0.7,0.1,1.3h-4.2
			c0,0.6,0.2,1.1,0.4,1.4c0.3,0.4,0.7,0.5,1.2,0.5c0.5,0,0.9-0.2,1.2-0.5c0.2-0.2,0.3-0.4,0.4-0.7h1c0,0.2-0.1,0.4-0.2,0.7
			c-0.1,0.3-0.3,0.5-0.5,0.6c-0.3,0.3-0.7,0.5-1.1,0.6c-0.2,0.1-0.5,0.1-0.8,0.1c-0.7,0-1.3-0.3-1.8-0.8c-0.5-0.5-0.7-1.3-0.7-2.2
			c0-0.9,0.2-1.7,0.7-2.3c0.5-0.6,1.1-0.9,2-0.9C230.8,69.7,231.1,69.7,231.5,69.9z M231.9,72.2c0-0.4-0.1-0.8-0.3-1
			c-0.3-0.5-0.7-0.7-1.3-0.7c-0.4,0-0.8,0.2-1.1,0.5s-0.5,0.7-0.5,1.2H231.9z"/>
		<path class="st7" d="M234.4,69.8h0.9v1c0.1-0.2,0.3-0.4,0.6-0.7s0.6-0.4,1-0.4c0,0,0,0,0.1,0s0.1,0,0.2,0v1c-0.1,0-0.1,0-0.2,0
			c0,0-0.1,0-0.2,0c-0.5,0-0.9,0.2-1.1,0.5s-0.4,0.7-0.4,1.1v3.3h-1V69.8z"/>
		<path class="st7" d="M241.9,69.8h1.1c-0.1,0.4-0.4,1.2-0.9,2.5c-0.4,1-0.6,1.8-0.9,2.4c-0.6,1.5-1,2.4-1.2,2.7s-0.6,0.5-1.2,0.5
			c-0.1,0-0.2,0-0.3,0s-0.2,0-0.3-0.1v-0.9c0.2,0,0.3,0.1,0.4,0.1c0.1,0,0.1,0,0.2,0c0.2,0,0.3,0,0.4-0.1c0.1-0.1,0.2-0.1,0.2-0.2
			c0,0,0.1-0.2,0.2-0.4s0.2-0.5,0.2-0.6l-2.1-5.9h1.1l1.5,4.7L241.9,69.8z"/>
	</g>
	<g>
		<path class="st7" d="M212.4,106.4h5.5v1h-4.4v2.4h3.9v0.9h-3.9v3.6h-1.1V106.4z"/>
		<path class="st7" d="M219.2,108.6h0.9v1c0.1-0.2,0.3-0.4,0.6-0.7s0.6-0.4,1-0.4c0,0,0,0,0.1,0s0.1,0,0.2,0v1c-0.1,0-0.1,0-0.2,0
			c0,0-0.1,0-0.2,0c-0.5,0-0.9,0.2-1.1,0.5s-0.4,0.7-0.4,1.1v3.3h-1V108.6z"/>
		<path class="st7" d="M227.3,109.2c0.5,0.5,0.8,1.2,0.8,2.2c0,0.9-0.2,1.7-0.7,2.3c-0.4,0.6-1.1,0.9-2.1,0.9
			c-0.8,0-1.4-0.3-1.9-0.8c-0.5-0.5-0.7-1.3-0.7-2.2c0-1,0.2-1.7,0.7-2.3c0.5-0.6,1.1-0.9,2-0.9
			C226.1,108.4,226.8,108.7,227.3,109.2z M226.7,113c0.2-0.5,0.4-1,0.4-1.6c0-0.5-0.1-1-0.3-1.3c-0.3-0.5-0.7-0.8-1.4-0.8
			c-0.6,0-1,0.2-1.3,0.7c-0.3,0.5-0.4,1-0.4,1.6c0,0.6,0.1,1.1,0.4,1.5c0.3,0.4,0.7,0.6,1.3,0.6C226,113.7,226.4,113.5,226.7,113z"
			/>
		<path class="st7" d="M229.5,108.6h0.9v0.8c0.3-0.3,0.6-0.6,0.9-0.7s0.6-0.2,1-0.2c0.8,0,1.4,0.3,1.7,0.9c0.2,0.3,0.2,0.8,0.2,1.3
			v3.7h-1v-3.6c0-0.4-0.1-0.6-0.2-0.8c-0.2-0.4-0.5-0.5-0.9-0.5c-0.2,0-0.4,0-0.6,0.1c-0.3,0.1-0.5,0.2-0.7,0.5
			c-0.2,0.2-0.3,0.4-0.3,0.6c0,0.2-0.1,0.5-0.1,0.9v3h-1V108.6z"/>
		<path class="st7" d="M236.1,107h1v1.6h0.9v0.8h-0.9v3.8c0,0.2,0.1,0.3,0.2,0.4c0.1,0,0.2,0.1,0.4,0.1c0,0,0.1,0,0.2,0
			c0.1,0,0.1,0,0.2,0v0.8c-0.1,0-0.2,0.1-0.3,0.1c-0.1,0-0.2,0-0.4,0c-0.5,0-0.8-0.1-0.9-0.3c-0.2-0.2-0.2-0.5-0.2-0.9v-3.8h-0.8
			v-0.8h0.8V107z"/>
		<path class="st7" d="M212.7,119.9c0.8,0.4,1.2,1.1,1.4,2.2h-1.1c-0.1-0.6-0.4-1-0.8-1.3c-0.4-0.3-0.9-0.4-1.5-0.4
			c-0.7,0-1.3,0.3-1.8,0.8c-0.5,0.5-0.7,1.4-0.7,2.4c0,0.9,0.2,1.7,0.6,2.3c0.4,0.6,1.1,0.9,2,0.9c0.7,0,1.3-0.2,1.7-0.6
			c0.5-0.4,0.7-1.1,0.7-2h-2.5v-0.9h3.5v4.2h-0.7l-0.3-1c-0.4,0.4-0.7,0.7-0.9,0.8c-0.5,0.3-1,0.4-1.8,0.4c-0.9,0-1.7-0.3-2.4-0.9
			c-0.7-0.8-1.1-1.8-1.1-3.1c0-1.3,0.4-2.4,1.1-3.2c0.7-0.7,1.5-1.1,2.6-1.1C211.5,119.4,212.2,119.6,212.7,119.9z"/>
		<path class="st7" d="M219.2,124.1c0.2,0,0.4-0.1,0.4-0.3c0-0.1,0.1-0.2,0.1-0.4c0-0.3-0.1-0.6-0.4-0.7c-0.2-0.1-0.6-0.2-1-0.2
			c-0.5,0-0.9,0.1-1.1,0.4c-0.1,0.2-0.2,0.4-0.2,0.7h-0.9c0-0.7,0.2-1.2,0.7-1.5c0.4-0.3,1-0.4,1.5-0.4c0.7,0,1.2,0.1,1.6,0.4
			c0.4,0.3,0.6,0.7,0.6,1.2v3.3c0,0.1,0,0.2,0.1,0.2c0,0.1,0.1,0.1,0.3,0.1c0,0,0.1,0,0.1,0c0.1,0,0.1,0,0.2,0v0.7
			c-0.2,0-0.3,0.1-0.3,0.1s-0.2,0-0.3,0c-0.3,0-0.6-0.1-0.7-0.4c-0.1-0.1-0.1-0.3-0.2-0.5c-0.2,0.3-0.5,0.5-0.8,0.7
			c-0.4,0.2-0.8,0.3-1.2,0.3c-0.5,0-1-0.2-1.3-0.5c-0.3-0.3-0.5-0.7-0.5-1.2c0-0.5,0.2-0.9,0.5-1.2s0.8-0.5,1.3-0.5L219.2,124.1z
			 M217.2,126.7c0.2,0.2,0.4,0.2,0.7,0.2c0.3,0,0.7-0.1,1-0.2c0.5-0.3,0.8-0.7,0.8-1.3v-0.8c-0.1,0.1-0.3,0.1-0.5,0.2
			c-0.2,0.1-0.4,0.1-0.5,0.1l-0.6,0.1c-0.4,0-0.6,0.1-0.8,0.2c-0.3,0.2-0.4,0.4-0.4,0.8C216.9,126.3,217,126.5,217.2,126.7z"/>
		<path class="st7" d="M222.6,119.6h1v7.9h-1V119.6z"/>
		<path class="st7" d="M225.3,119.6h1v7.9h-1V119.6z"/>
		<path class="st7" d="M231.5,121.9c0.4,0.2,0.7,0.4,0.9,0.7c0.2,0.3,0.3,0.6,0.4,1c0.1,0.3,0.1,0.7,0.1,1.3h-4.2
			c0,0.6,0.2,1.1,0.4,1.4c0.3,0.4,0.7,0.5,1.2,0.5c0.5,0,0.9-0.2,1.2-0.5c0.2-0.2,0.3-0.4,0.4-0.7h1c0,0.2-0.1,0.4-0.2,0.7
			c-0.1,0.3-0.3,0.5-0.5,0.6c-0.3,0.3-0.7,0.5-1.1,0.6c-0.2,0.1-0.5,0.1-0.8,0.1c-0.7,0-1.3-0.3-1.8-0.8c-0.5-0.5-0.7-1.3-0.7-2.2
			c0-0.9,0.2-1.7,0.7-2.3c0.5-0.6,1.1-0.9,2-0.9C230.8,121.7,231.1,121.7,231.5,121.9z M231.9,124.2c0-0.4-0.1-0.8-0.3-1
			c-0.3-0.5-0.7-0.7-1.3-0.7c-0.4,0-0.8,0.2-1.1,0.5s-0.5,0.7-0.5,1.2H231.9z"/>
		<path class="st7" d="M234.4,121.8h0.9v1c0.1-0.2,0.3-0.4,0.6-0.7s0.6-0.4,1-0.4c0,0,0,0,0.1,0s0.1,0,0.2,0v1c-0.1,0-0.1,0-0.2,0
			c0,0-0.1,0-0.2,0c-0.5,0-0.9,0.2-1.1,0.5s-0.4,0.7-0.4,1.1v3.3h-1V121.8z"/>
		<path class="st7" d="M241.9,121.8h1.1c-0.1,0.4-0.4,1.2-0.9,2.5c-0.4,1-0.6,1.8-0.9,2.4c-0.6,1.5-1,2.4-1.2,2.7s-0.6,0.5-1.2,0.5
			c-0.1,0-0.2,0-0.3,0s-0.2,0-0.3-0.1v-0.9c0.2,0,0.3,0.1,0.4,0.1c0.1,0,0.1,0,0.2,0c0.2,0,0.3,0,0.4-0.1c0.1-0.1,0.2-0.1,0.2-0.2
			c0,0,0.1-0.2,0.2-0.4s0.2-0.5,0.2-0.6l-2.1-5.9h1.1l1.5,4.7L241.9,121.8z"/>
	</g>
	<g>
		<g>
			<path class="st7" d="M136.8,154.1h1.1v7h4v0.9h-5V154.1z"/>
			<path class="st7" d="M147.2,156.8c0.5,0.5,0.8,1.2,0.8,2.2c0,0.9-0.2,1.7-0.7,2.3c-0.4,0.6-1.1,0.9-2.1,0.9
				c-0.8,0-1.4-0.3-1.9-0.8c-0.5-0.5-0.7-1.3-0.7-2.2c0-1,0.2-1.7,0.7-2.3c0.5-0.6,1.1-0.9,2-0.9
				C146.1,156.1,146.7,156.3,147.2,156.8z M146.6,160.6c0.2-0.5,0.4-1,0.4-1.6c0-0.5-0.1-1-0.3-1.3c-0.3-0.5-0.7-0.8-1.4-0.8
				c-0.6,0-1,0.2-1.3,0.7c-0.3,0.5-0.4,1-0.4,1.6c0,0.6,0.1,1.1,0.4,1.5c0.3,0.4,0.7,0.6,1.3,0.6C146,161.4,146.4,161.1,146.6,160.6
				z"/>
			<path class="st7" d="M149.9,156.2l1.1,4.5l1.1-4.5h1.1l1.1,4.5l1.2-4.5h1l-1.7,5.8h-1l-1.2-4.5l-1.1,4.5h-1l-1.7-5.8H149.9z"/>
			<path class="st7" d="M161.2,156.4c0.4,0.2,0.7,0.4,0.9,0.7c0.2,0.3,0.3,0.6,0.4,1c0.1,0.3,0.1,0.7,0.1,1.3h-4.2
				c0,0.6,0.2,1.1,0.4,1.4c0.3,0.4,0.7,0.5,1.2,0.5c0.5,0,0.9-0.2,1.2-0.5c0.2-0.2,0.3-0.4,0.4-0.7h1c0,0.2-0.1,0.4-0.2,0.7
				c-0.1,0.3-0.3,0.5-0.5,0.6c-0.3,0.3-0.7,0.5-1.1,0.6c-0.2,0.1-0.5,0.1-0.8,0.1c-0.7,0-1.3-0.3-1.8-0.8c-0.5-0.5-0.7-1.3-0.7-2.2
				c0-0.9,0.2-1.7,0.7-2.3c0.5-0.6,1.1-0.9,2-0.9C160.5,156.1,160.9,156.2,161.2,156.4z M161.6,158.7c0-0.4-0.1-0.8-0.3-1
				c-0.3-0.5-0.7-0.7-1.3-0.7c-0.4,0-0.8,0.2-1.1,0.5s-0.5,0.7-0.5,1.2H161.6z"/>
			<path class="st7" d="M164.1,156.2h0.9v1c0.1-0.2,0.3-0.4,0.6-0.7s0.6-0.4,1-0.4c0,0,0,0,0.1,0s0.1,0,0.2,0v1c-0.1,0-0.1,0-0.2,0
				c0,0-0.1,0-0.2,0c-0.5,0-0.9,0.2-1.1,0.5s-0.4,0.7-0.4,1.1v3.3h-1V156.2z"/>
			<path class="st7" d="M138.6,167.3h1.1v7h4v0.9h-5V167.3z"/>
			<path class="st7" d="M148.5,169.6c0.4,0.2,0.7,0.4,0.9,0.7c0.2,0.3,0.3,0.6,0.4,1c0.1,0.3,0.1,0.7,0.1,1.3h-4.2
				c0,0.6,0.2,1.1,0.4,1.4c0.3,0.4,0.7,0.5,1.2,0.5c0.5,0,0.9-0.2,1.2-0.5c0.2-0.2,0.3-0.4,0.4-0.7h1c0,0.2-0.1,0.4-0.2,0.7
				c-0.1,0.3-0.3,0.5-0.5,0.6c-0.3,0.3-0.7,0.5-1.1,0.6c-0.2,0.1-0.5,0.1-0.8,0.1c-0.7,0-1.3-0.3-1.8-0.8c-0.5-0.5-0.7-1.3-0.7-2.2
				c0-0.9,0.2-1.7,0.7-2.3c0.5-0.6,1.1-0.9,2-0.9C147.7,169.3,148.1,169.4,148.5,169.6z M148.8,171.9c0-0.4-0.1-0.8-0.3-1
				c-0.3-0.5-0.7-0.7-1.3-0.7c-0.4,0-0.8,0.2-1.1,0.5s-0.5,0.7-0.5,1.2H148.8z"/>
			<path class="st7" d="M151.8,169.4l1.5,4.7l1.6-4.7h1.1l-2.2,5.8h-1l-2.1-5.8H151.8z"/>
			<path class="st7" d="M160.6,169.6c0.4,0.2,0.7,0.4,0.9,0.7c0.2,0.3,0.3,0.6,0.4,1c0.1,0.3,0.1,0.7,0.1,1.3h-4.2
				c0,0.6,0.2,1.1,0.4,1.4c0.3,0.4,0.7,0.5,1.2,0.5c0.5,0,0.9-0.2,1.2-0.5c0.2-0.2,0.3-0.4,0.4-0.7h1c0,0.2-0.1,0.4-0.2,0.7
				c-0.1,0.3-0.3,0.5-0.5,0.6c-0.3,0.3-0.7,0.5-1.1,0.6c-0.2,0.1-0.5,0.1-0.8,0.1c-0.7,0-1.3-0.3-1.8-0.8c-0.5-0.5-0.7-1.3-0.7-2.2
				c0-0.9,0.2-1.7,0.7-2.3c0.5-0.6,1.1-0.9,2-0.9C159.9,169.3,160.2,169.4,160.6,169.6z M161,171.9c0-0.4-0.1-0.8-0.3-1
				c-0.3-0.5-0.7-0.7-1.3-0.7c-0.4,0-0.8,0.2-1.1,0.5s-0.5,0.7-0.5,1.2H161z"/>
			<path class="st7" d="M163.5,167.3h1v7.9h-1V167.3z"/>
		</g>
	</g>
</g>
<g id="walls">
	<polyline class="st8" points="255.8,155 382,155 382,267 	"/>
	<polyline class="st8" points="210.8,276.8 211,165 182.2,164.8 	"/>
	<line class="st8" x1="253" y1="144" x2="198.5" y2="144"/>
	<line class="st9" x1="343" y1="154" x2="343" y2="65"/>
	<rect x="256" y="104.7" class="st10" width="86.5" height="49.3"/>
</g>
</svg>
